<?xml version="1.0" encoding="UTF-8" standalone="no"?>
<svg
   xmlns:dc="http://purl.org/dc/elements/1.1/"
   xmlns:cc="http://creativecommons.org/ns#"
   xmlns:rdf="http://www.w3.org/1999/02/22-rdf-syntax-ns#"
   xmlns:svg="http://www.w3.org/2000/svg"
   xmlns="http://www.w3.org/2000/svg"
   xmlns:sodipodi="http://sodipodi.sourceforge.net/DTD/sodipodi-0.dtd"
   xmlns:inkscape="http://www.inkscape.org/namespaces/inkscape"
   id="master-artboard"
   viewBox="0 0 1920 980"
   version="1.1"
   x="0px"
   y="0px"
   width="1920"
   height="980"
   inkscape:version="0.91 r13725"
   sodipodi:docname="fazedByTech.svg">
  <metadata
     id="metadata327">
    <rdf:RDF>
      <cc:Work
         rdf:about="">
        <dc:format>image/svg+xml</dc:format>
        <dc:type
           rdf:resource="http://purl.org/dc/dcmitype/StillImage" />
        <dc:title></dc:title>
      </cc:Work>
    </rdf:RDF>
  </metadata>
  <defs
     id="defs325">
    <inkscape:path-effect
       effect="spiro"
       id="path-effect4567"
       is_visible="true" />
    <inkscape:path-effect
       is_visible="true"
       id="path-effect4563"
       effect="spiro" />
    <inkscape:path-effect
       is_visible="true"
       id="path-effect4471"
       effect="spiro" />
    <inkscape:path-effect
       effect="spiro"
       id="path-effect4467"
       is_visible="true" />
    <inkscape:path-effect
       is_visible="true"
       id="path-effect4461"
       effect="spiro" />
    <inkscape:path-effect
       effect="spiro"
       id="path-effect4457"
       is_visible="true" />
  </defs>
  <sodipodi:namedview
     pagecolor="#ffffff"
     bordercolor="#666666"
     borderopacity="1"
     objecttolerance="10"
     gridtolerance="10"
     guidetolerance="10"
     inkscape:pageopacity="0"
     inkscape:pageshadow="2"
     inkscape:window-width="1920"
     inkscape:window-height="1017"
     id="namedview323"
     showgrid="false"
     fit-margin-top="0"
     fit-margin-left="0"
     fit-margin-right="0"
     fit-margin-bottom="0"
     inkscape:zoom="0.1767767"
     inkscape:cx="215.5692"
     inkscape:cy="1538.1054"
     inkscape:window-x="-8"
     inkscape:window-y="-8"
     inkscape:window-maximized="1"
     inkscape:current-layer="g3" />
  <g
     transform="scale(0.89090909,0.89090909)"
     id="g3">
    <g
       id="g5">
      <path
         d="m 0,0 2155.102,0 0,1100 L 0,1100 0,0 Z"
         class="st0"
         style="fill:#137ee8"
         id="path7"
         inkscape:connector-curvature="0" />
    </g>
    <g
       id="g9"
       transform="translate(356.25101,0)">
      <path
         d="m 271.20001,287.10001 a 9.5,9.5 0 0 1 -9.5,9.5 9.5,9.5 0 0 1 -9.5,-9.5 9.5,9.5 0 0 1 9.5,-9.5 9.5,9.5 0 0 1 9.5,9.5 z"
         class="st1"
         style="fill:#55b2ff"
         id="path11"
         inkscape:connector-curvature="0" />
      <path
         d="m 249.4,318.39999 a 10.6,10.6 0 0 1 -10.6,10.6 10.6,10.6 0 0 1 -10.6,-10.6 10.6,10.6 0 0 1 10.6,-10.6 10.6,10.6 0 0 1 10.6,10.6 z"
         class="st1"
         style="fill:#55b2ff"
         id="path13"
         inkscape:connector-curvature="0" />
      <path
         d="m 191.89999,387.39999 a 6.5,6.5 0 0 1 -6.5,6.5 6.5,6.5 0 0 1 -6.5,-6.5 6.5,6.5 0 0 1 6.5,-6.5 6.5,6.5 0 0 1 6.5,6.5 z"
         class="st1"
         style="fill:#55b2ff"
         id="path15"
         inkscape:connector-curvature="0" />
      <path
         d="m 286.90001,440.29999 a 7.8,7.8 0 0 1 -7.8,7.8 7.8,7.8 0 0 1 -7.8,-7.8 7.8,7.8 0 0 1 7.8,-7.8 7.8,7.8 0 0 1 7.8,7.8 z"
         class="st1"
         style="fill:#55b2ff"
         id="path17"
         inkscape:connector-curvature="0" />
      <path
         d="m 409.70001,299.29999 a 5.5,5.5 0 0 1 -5.5,5.5 5.5,5.5 0 0 1 -5.5,-5.5 5.5,5.5 0 0 1 5.5,-5.5 5.5,5.5 0 0 1 5.5,5.5 z"
         class="st1"
         style="fill:#55b2ff"
         id="path19"
         inkscape:connector-curvature="0" />
      <path
         d="m 537.39999,245.8 a 6.6,6.6 0 0 1 -6.6,6.6 6.6,6.6 0 0 1 -6.6,-6.6 6.6,6.6 0 0 1 6.6,-6.6 6.6,6.6 0 0 1 6.6,6.6 z"
         class="st1"
         style="fill:#55b2ff"
         id="path21"
         inkscape:connector-curvature="0" />
      <path
         d="m 467.59999,159.8 a 6.3,6.3 0 0 1 -6.3,6.3 6.3,6.3 0 0 1 -6.3,-6.3 6.3,6.3 0 0 1 6.3,-6.3 6.3,6.3 0 0 1 6.3,6.3 z"
         class="st1"
         style="fill:#55b2ff"
         id="path23"
         inkscape:connector-curvature="0" />
      <path
         d="M 409.7,177 A 13.2,13.2 0 0 1 396.5,190.2 13.2,13.2 0 0 1 383.3,177 13.2,13.2 0 0 1 396.5,163.8 13.2,13.2 0 0 1 409.7,177 Z"
         class="st1"
         style="fill:#55b2ff"
         id="path25"
         inkscape:connector-curvature="0" />
      <path
         d="m 682.50001,233.10001 a 9.8,9.8 0 0 1 -9.8,9.8 9.8,9.8 0 0 1 -9.8,-9.8 9.8,9.8 0 0 1 9.8,-9.8 9.8,9.8 0 0 1 9.8,9.8 z"
         class="st1"
         style="fill:#55b2ff"
         id="path27"
         inkscape:connector-curvature="0" />
      <path
         d="m 744.40001,219.5 a 4.2,4.2 0 0 1 -4.2,4.2 4.2,4.2 0 0 1 -4.2,-4.2 4.2,4.2 0 0 1 4.2,-4.2 4.2,4.2 0 0 1 4.2,4.2 z"
         class="st1"
         style="fill:#55b2ff"
         id="path29"
         inkscape:connector-curvature="0" />
      <path
         d="m 770.40002,112.3 a 11.5,11.5 0 0 1 -11.5,11.5 11.5,11.5 0 0 1 -11.5,-11.5 11.5,11.5 0 0 1 11.5,-11.5 11.5,11.5 0 0 1 11.5,11.5 z"
         class="st1"
         style="fill:#55b2ff"
         id="path31"
         inkscape:connector-curvature="0" />
      <path
         d="m 677.70001,100.9 a 6.5,6.5 0 0 1 -6.5,6.5 6.5,6.5 0 0 1 -6.5,-6.5 6.5,6.5 0 0 1 6.5,-6.499998 6.5,6.5 0 0 1 6.5,6.499998 z"
         class="st1"
         style="fill:#55b2ff"
         id="path33"
         inkscape:connector-curvature="0" />
      <path
         d="m 911.49999,205.60001 a 6.7,6.7 0 0 1 -6.7,6.7 6.7,6.7 0 0 1 -6.7,-6.7 6.7,6.7 0 0 1 6.7,-6.7 6.7,6.7 0 0 1 6.7,6.7 z"
         class="st1"
         style="fill:#55b2ff"
         id="path35"
         inkscape:connector-curvature="0" />
      <path
         d="m 1012.5,261.60001 a 6.9,6.9 0 0 1 -6.9,6.9 6.9,6.9 0 0 1 -6.90003,-6.9 6.9,6.9 0 0 1 6.90003,-6.9 6.9,6.9 0 0 1 6.9,6.9 z"
         class="st1"
         style="fill:#55b2ff"
         id="path37"
         inkscape:connector-curvature="0" />
      <path
         d="m 951.99999,292.10001 a 11.7,11.7 0 0 1 -11.7,11.7 11.7,11.7 0 0 1 -11.7,-11.7 11.7,11.7 0 0 1 11.7,-11.7 11.7,11.7 0 0 1 11.7,11.7 z"
         class="st1"
         style="fill:#55b2ff"
         id="path39"
         inkscape:connector-curvature="0" />
      <path
         d="m 1030.8,153.39999 a 11.5,11.5 0 0 1 -11.5,11.5 11.5,11.5 0 0 1 -11.5,-11.5 11.5,11.5 0 0 1 11.5,-11.5 11.5,11.5 0 0 1 11.5,11.5 z"
         class="st1"
         style="fill:#55b2ff"
         id="path41"
         inkscape:connector-curvature="0" />
      <path
         d="m 1126.9,305.70001 a 8.8,8.8 0 0 1 -8.8,8.8 8.8,8.8 0 0 1 -8.8,-8.8 8.8,8.8 0 0 1 8.8,-8.8 8.8,8.8 0 0 1 8.8,8.8 z"
         class="st1"
         style="fill:#55b2ff"
         id="path43"
         inkscape:connector-curvature="0" />
      <path
         d="m 1191.5,375.79999 a 7.9,7.9 0 0 1 -7.9,7.9 7.9,7.9 0 0 1 -7.9,-7.9 7.9,7.9 0 0 1 7.9,-7.9 7.9,7.9 0 0 1 7.9,7.9 z"
         class="st1"
         style="fill:#55b2ff"
         id="path45"
         inkscape:connector-curvature="0" />
      <path
         d="M 1141.5,433.5 A 13.5,13.5 0 0 1 1128,447 13.5,13.5 0 0 1 1114.5,433.5 13.5,13.5 0 0 1 1128,420 a 13.5,13.5 0 0 1 13.5,13.5 z"
         class="st1"
         style="fill:#55b2ff"
         id="path47"
         inkscape:connector-curvature="0" />
      <path
         d="m 1263.7,447.79999 a 14.4,14.4 0 0 1 -14.4,14.4 14.4,14.4 0 0 1 -14.4,-14.4 14.4,14.4 0 0 1 14.4,-14.4 14.4,14.4 0 0 1 14.4,14.4 z"
         class="st1"
         style="fill:#55b2ff"
         id="path49"
         inkscape:connector-curvature="0" />
    </g>
    <g
       id="g51"
       transform="translate(377.55101,0)">
      <g
         id="g53">
        <g
           id="g55">
          <path
             d="m 203.7,1100 48.19999,0 66,-411.90002 -48.19998,0 z"
             class="st2"
             style="fill:#dd970a"
             id="path57"
             inkscape:connector-curvature="0" />
          <g
             id="g59">
            <path
               d="m 309.60001,1100 -48.10001,0 -66,-411.90002 48.10001,0 z"
               class="st3"
               style="fill:#e5a517"
               id="path61"
               inkscape:connector-curvature="0" />
          </g>
          <path
             d="m 273.50001,894.09998 a 16.799999,16.799999 0 0 1 -16.8,16.8 16.799999,16.799999 0 0 1 -16.8,-16.8 16.799999,16.799999 0 0 1 16.8,-16.8 16.799999,16.799999 0 0 1 16.8,16.8 z"
             class="st4"
             style="fill:#d38905"
             id="path63"
             inkscape:connector-curvature="0" />
        </g>
        <g
           id="g65">
          <path
             d="m 1090.4,1100 48.1,0 66,-411.90002 -48.1,0 z"
             class="st2"
             style="fill:#dd970a"
             id="path67"
             inkscape:connector-curvature="0" />
          <g
             id="g69">
            <path
               d="m 1196.3,1100 -48.2,0 -66,-411.90002 48.2,0 z"
               class="st3"
               style="fill:#e5a517"
               id="path71"
               inkscape:connector-curvature="0" />
          </g>
          <path
             d="m 1160.1,894.09998 a 16.799999,16.799999 0 0 1 -16.8,16.8 16.799999,16.799999 0 0 1 -16.7999,-16.8 16.799999,16.799999 0 0 1 16.7999,-16.8 16.799999,16.799999 0 0 1 16.8,16.8 z"
             class="st4"
             style="fill:#d38905"
             id="path73"
             inkscape:connector-curvature="0" />
        </g>
      </g>
      <path
         d="m 42.700001,670.5 1314.599999,0 0,35.2 -1314.599999,0 0,-35.2 z"
         class="st5"
         style="fill:#f4bd37"
         id="path75"
         inkscape:connector-curvature="0" />
    </g>
    <g
       id="g77"
       transform="translate(377.60102,0)">
      <path
         d="m 529.09998,643.79999 341.70001,0 0,26.7 -341.70001,0 0,-26.7 z"
         class="st6"
         style="fill:#2d406c"
         id="path79"
         inkscape:connector-curvature="0" />
      <path
         d="m 649,643.79999 102.1,0 0,13.3 -102.1,0 0,-13.3 z"
         class="st7"
         style="fill:#12264f"
         id="path81"
         inkscape:connector-curvature="0" />
      <path
         d="m 535,463.20001 326.89999,0 0,180.60001 -326.89999,0 0,-180.60001 z"
         class="st8"
         style="fill:#334872"
         id="path83"
         inkscape:connector-curvature="0" />
      <path
         d="m 616.09998,398.10001 164.6,0 0,310.89999 -164.6,0 0,-310.89999 z"
         transform="matrix(0,1,-1,0,1251.9117,-144.8945)"
         class="st9"
         style="fill:#ffffff"
         id="path85"
         inkscape:connector-curvature="0" />
      <g
         id="g87">
        <path
           class="st10"
           d="m 728.8,636.7 -166.3,0 0,-49 c 0,-45.9 37.2,-83.1 83.1,-83.1 l 0,0 c 45.9,0 83.1,37.2 83.1,83.1 l 0,49 z"
           style="fill:#006da3"
           id="path89"
           inkscape:connector-curvature="0" />
        <g
           id="g91">
          <g
             id="g93">
            <path
               class="st11"
               d="m 581.5,445.5 -6.1,0 c -9.6,0 -17.3,-7.7 -17.3,-17.3 l 0,0 c 0,-6.5 5.3,-11.7 11.7,-11.7 l 11.7,0 0,29 z"
               style="fill:#ffad69"
               id="path95"
               inkscape:connector-curvature="0" />
            <path
               class="st11"
               d="m 709.9,445.5 6.1,0 c 9.6,0 17.3,-7.7 17.3,-17.3 l 0,0 c 0,-6.5 -5.3,-11.7 -11.7,-11.7 l -11.7,0 0,29 z"
               style="fill:#ffad69"
               id="path97"
               inkscape:connector-curvature="0" />
          </g>
          <path
             class="st11"
             d="m 644.7,526.3 0,0 c -8.8,0 -16,-7.2 -16,-16 l 0,-27.5 32,0 0,27.5 c 0,8.9 -7.2,16 -16,16 z"
             style="fill:#ffad69"
             id="path99"
             inkscape:connector-curvature="0" />
          <path
             class="st12"
             d="m 690.2,496.5 -89,0 c -11.7,0 -21.1,-9.5 -21.1,-21.1 l 0,-58.4 c 0,-36.3 29.4,-65.7 65.7,-65.7 l 0,0 c 36.3,0 65.7,29.4 65.7,65.7 l 0,58.3 c -0.2,11.7 -9.6,21.2 -21.3,21.2 z"
             style="fill:#ffc28a"
             id="path101"
             inkscape:connector-curvature="0" />
          <path
             class="st8"
             d="M 723,363.2 620.5,333.9 c -1.9,-0.5 -4,0.1 -5.2,1.7 l -18.4,23.6 c -1.2,1.6 -3.4,2.3 -5.3,1.7 l -16.4,-5.1 c -3.5,-1.1 -6.9,1.9 -6.3,5.4 l 6.1,37.7 c 0,0.3 0.1,0.5 0.1,0.8 l 0,57.6 c 0,2.7 2.2,4.9 4.9,4.9 l 0,0 c 2.7,0 4.9,-2.2 4.9,-4.9 l 0,-37.2 c 0,-1.3 0.5,-2.6 1.5,-3.5 l 21.7,-21.1 c 1.1,-1.1 2.7,-1.6 4.3,-1.3 l 90,16.6 c 2.3,0.4 4,2.4 4,4.8 l 0,41.6 c 0,2.7 2.2,4.9 4.9,4.9 l 0,0 c 2.7,0 4.9,-2.2 4.9,-4.9 l 0,-44.8 c 0,-2.2 1.4,-4.1 3.5,-4.7 l 9.3,-2.6 c 2.4,-0.7 3.9,-3.1 3.5,-5.6 l -6,-32.6 c -0.4,-1.7 -1.7,-3.1 -3.5,-3.7 z"
             style="fill:#334872"
             id="path103"
             inkscape:connector-curvature="0" />
          <path
             class="st6"
             d="m 724.2,413.5 -28.9,0 c -4.5,-4 -10.4,-6.4 -16.9,-6.4 -9.5,0 -17.9,5.3 -22.3,13.1 -2.9,-2.5 -6.6,-3.9 -10.6,-3.9 -3.9,0 -7.7,1.4 -10.6,3.9 -4.4,-7.8 -12.7,-13.1 -22.3,-13.1 -6.5,0 -12.4,2.4 -16.9,6.4 l -28.9,0 c -1.6,0 -2.9,1.3 -2.9,2.9 0,1.6 1.3,2.9 2.9,2.9 l 24,0 c -2.4,3.9 -3.7,8.4 -3.7,13.3 0,14.1 11.5,25.5 25.5,25.5 14.1,0 25.5,-11.5 25.5,-25.5 0,-2.3 -0.3,-4.5 -0.9,-6.6 2,-2.5 5,-3.9 8.2,-3.9 3.2,0 6.2,1.4 8.2,3.9 -0.6,2.1 -0.9,4.3 -0.9,6.6 0,14.1 11.5,25.5 25.5,25.5 14.1,0 25.5,-11.5 25.5,-25.5 0,-4.9 -1.4,-9.4 -3.7,-13.3 l 24,0 c 1.6,0 2.9,-1.3 2.9,-2.9 0,-1.6 -1.1,-2.9 -2.7,-2.9 z m -111.4,38.8 c -10.9,0 -19.7,-8.8 -19.7,-19.7 0,-10.9 8.8,-19.7 19.7,-19.7 10.9,0 19.7,8.8 19.7,19.7 0,10.9 -8.8,19.7 -19.7,19.7 z m 65.7,0 c -10.9,0 -19.7,-8.8 -19.7,-19.7 0,-10.9 8.8,-19.7 19.7,-19.7 10.9,0 19.7,8.8 19.7,19.7 0,10.9 -8.8,19.7 -19.7,19.7 z"
             style="fill:#2d406c"
             id="path105"
             inkscape:connector-curvature="0" />
          <path
             class="st13"
             d="m 622.2,489.75539 c 7.15667,-9.81926 18.63638,-19.88383 23.5,-23.5 10.43239,-7.75663 23.5,10.5 23.5,23.5 -4.1476,-10.87912 -12.61337,-17.67996 -47,0 z"
             style="fill:#ce4949"
             id="path107"
             inkscape:connector-curvature="0"
             sodipodi:nodetypes="cscc" />
        </g>
        <path
           d="m 595.09998,588.90002 101.09999,0 0,24.3 -101.09999,0 0,-24.3 z"
           class="st14"
           style="fill:#1b9acc"
           id="path113"
           inkscape:connector-curvature="0" />
        <path
           class="st15"
           d="m 598.2,636.7 -6.9,0 0,-55.1 c 0,-1.9 1.6,-3.5 3.5,-3.5 l 0,0 c 1.9,0 3.5,1.6 3.5,3.5 l 0,55.1 z"
           style="fill:#006289"
           id="path115"
           inkscape:connector-curvature="0" />
        <path
           class="st15"
           d="m 699.7,636.7 -6.9,0 0,-55.1 c 0,-1.9 1.6,-3.5 3.5,-3.5 l 0,0 c 1.9,0 3.5,1.6 3.5,3.5 l 0,55.1 z"
           style="fill:#006289"
           id="path117"
           inkscape:connector-curvature="0" />
      </g>
      <g
         id="g119">
        <path
           d="m 745.70001,504.60001 48.3,0 0,6.3 -48.3,0 0,-6.3 z"
           class="st14"
           style="fill:#1b9acc"
           id="path121"
           inkscape:connector-curvature="0" />
        <path
           d="m 745.70001,518.70001 87.4,0 0,6.3 -87.4,0 0,-6.3 z"
           class="st14"
           style="fill:#1b9acc"
           id="path123"
           inkscape:connector-curvature="0" />
        <path
           d="m 745.70001,532.90002 87.4,0 0,6.3 -87.4,0 0,-6.3 z"
           class="st14"
           style="fill:#1b9acc"
           id="path125"
           inkscape:connector-curvature="0" />
      </g>
      <g
         id="g127">
        <path
           d="m 778.99997,570.59998 a 12.4,12.4 0 0 1 -12.39999,12.39999 12.4,12.4 0 0 1 -12.4,-12.39999 12.4,12.4 0 0 1 12.4,-12.4 12.4,12.4 0 0 1 12.39999,12.4 z"
           class="st16"
           style="fill:#ff7942"
           id="path129"
           inkscape:connector-curvature="0" />
        <g
           id="g131">
          <path
             d="m 791.40002,564.40002 33.2,0 0,3.1 -33.2,0 0,-3.1 z"
             class="st0"
             style="fill:#137ee8"
             id="path133"
             inkscape:connector-curvature="0" />
          <path
             d="m 791.40002,573.70001 33.2,0 0,3.1 -33.2,0 0,-3.1 z"
             class="st0"
             style="fill:#137ee8"
             id="path135"
             inkscape:connector-curvature="0" />
        </g>
      </g>
      <g
         id="g137">
        <path
           d="m 778.99997,607.40002 a 12.4,12.4 0 0 1 -12.39999,12.4 12.4,12.4 0 0 1 -12.4,-12.4 12.4,12.4 0 0 1 12.4,-12.39999 12.4,12.4 0 0 1 12.39999,12.39999 z"
           class="st16"
           style="fill:#ff7942"
           id="path139"
           inkscape:connector-curvature="0" />
        <g
           id="g141">
          <path
             d="m 791.40002,601.20001 33.2,0 0,3.1 -33.2,0 0,-3.1 z"
             class="st0"
             style="fill:#137ee8"
             id="path143"
             inkscape:connector-curvature="0" />
          <path
             d="m 791.40002,610.5 33.2,0 0,3.1 -33.2,0 0,-3.1 z"
             class="st0"
             style="fill:#137ee8"
             id="path145"
             inkscape:connector-curvature="0" />
        </g>
      </g>
    </g>
    <g
       id="g147"
       transform="translate(711.34081,0)">
      <path
         d="m 355.40001,645 a 21.799999,21.799999 0 0 1 -21.8,21.8 21.799999,21.799999 0 0 1 -21.8,-21.8 21.799999,21.799999 0 0 1 21.8,-21.8 21.799999,21.799999 0 0 1 21.8,21.8 z"
         class="st17"
         style="fill:#73e5ff"
         id="path149"
         inkscape:connector-curvature="0" />
      <g
         id="g151">
        <path
           class="st18"
           d="m 333.6,623.2 c -1.9,0 -3.7,0.2 -5.4,0.7 l -15.6,27 c 0.9,3.1 2.4,5.8 4.4,8.2 l 20.5,-35.5 c -1.3,-0.3 -2.6,-0.4 -3.9,-0.4 z"
           style="fill:#99f1ff"
           id="path153"
           inkscape:connector-curvature="0" />
        <path
           class="st18"
           d="m 343.3,625.5 -21.7,37.7 c 1.6,1.1 3.4,1.9 5.3,2.5 l 21.3,-36.9 c -1.5,-1.3 -3.1,-2.4 -4.9,-3.3 z"
           style="fill:#99f1ff"
           id="path155"
           inkscape:connector-curvature="0" />
      </g>
      <path
         d="m 421.09999,645 a 21.799999,21.799999 0 0 1 -21.8,21.8 21.799999,21.799999 0 0 1 -21.8,-21.8 21.799999,21.799999 0 0 1 21.8,-21.8 21.799999,21.799999 0 0 1 21.8,21.8 z"
         class="st17"
         style="fill:#73e5ff"
         id="path157"
         inkscape:connector-curvature="0" />
      <g
         id="g159">
        <path
           class="st18"
           d="m 400.7,623.3 -19.6,33.9 c 1.5,2.3 3.5,4.2 5.7,5.8 l 21.7,-37.6 c -2.3,-1.2 -5,-1.9 -7.8,-2.1 z"
           style="fill:#99f1ff"
           id="path161"
           inkscape:connector-curvature="0" />
        <path
           class="st18"
           d="m 413.7,628.7 -21.3,37 c 1.9,0.6 4,1 6.1,1.1 l 19.3,-33.4 c -1.2,-1.8 -2.6,-3.4 -4.1,-4.7 z"
           style="fill:#99f1ff"
           id="path163"
           inkscape:connector-curvature="0" />
      </g>
      <g
         id="g165">
        <g
           id="g167">
          <g
             id="g169">
            <path
               class="st6"
               d="m 445,625.9 -28.9,0 c -4.5,-4 -10.4,-6.4 -16.9,-6.4 -9.5,0 -17.9,5.3 -22.3,13.1 -2.9,-2.5 -6.6,-3.9 -10.6,-3.9 -3.9,0 -7.7,1.4 -10.6,3.9 -4.4,-7.8 -12.7,-13.1 -22.3,-13.1 -6.5,0 -12.4,2.4 -16.9,6.4 l -28.9,0 c -1.6,0 -2.9,1.3 -2.9,2.9 0,1.6 1.3,2.9 2.9,2.9 l 24,0 c -2.4,3.9 -3.7,8.4 -3.7,13.3 0,14.1 11.5,25.5 25.5,25.5 14.1,0 25.5,-11.5 25.5,-25.5 0,-2.3 -0.3,-4.5 -0.9,-6.6 2,-2.5 5,-3.9 8.2,-3.9 3.2,0 6.2,1.4 8.2,3.9 -0.6,2.1 -0.9,4.3 -0.9,6.6 0,14.1 11.5,25.5 25.5,25.5 14.1,0 25.5,-11.5 25.5,-25.5 0,-4.9 -1.4,-9.4 -3.7,-13.3 l 24,0 c 1.6,0 2.9,-1.3 2.9,-2.9 0.2,-1.6 -1.1,-2.9 -2.7,-2.9 z m -111.4,38.8 c -10.9,0 -19.7,-8.8 -19.7,-19.7 0,-10.9 8.8,-19.7 19.7,-19.7 10.9,0 19.7,8.8 19.7,19.7 0,10.8 -8.8,19.7 -19.7,19.7 z m 65.7,0 c -10.9,0 -19.7,-8.8 -19.7,-19.7 0,-10.9 8.8,-19.7 19.7,-19.7 10.9,0 19.7,8.8 19.7,19.7 -0.1,10.8 -8.9,19.7 -19.7,19.7 z"
               style="fill:#2d406c"
               id="path171"
               inkscape:connector-curvature="0" />
          </g>
        </g>
      </g>
    </g>
    <g
       id="g179" />
    <g
       id="g285"
       transform="translate(80.851,0)">
      <g
         id="g287">
        <path
           class="st9"
           d="m 1041,670.9 -100.3,0 c -6.4,0 -11.6,-5.2 -11.6,-11.6 l 0,-140.6 111.9,0 0,152.2 z"
           style="fill:#ffffff"
           id="path289"
           inkscape:connector-curvature="0" />
        <path
           class="st24"
           d="m 1064.3,639 0,20.3 c 0,6.4 -5.2,11.6 -11.6,11.6 l -112,0 c 6.4,0 11.6,-5.2 11.6,-11.6 l 0,-20.3 112,0 z"
           style="fill:#d9dcf4"
           id="path291"
           inkscape:connector-curvature="0" />
      </g>
      <g
         id="g293">
        <path
           d="m 940.70001,536.09998 40.3,0 0,5.7 -40.3,0 0,-5.7 z"
           class="st24"
           style="fill:#d9dcf4"
           id="path295"
           inkscape:connector-curvature="0" />
        <path
           d="m 940.70001,548.5 79.29999,0 0,5.7 -79.29999,0 0,-5.7 z"
           class="st24"
           style="fill:#d9dcf4"
           id="path297"
           inkscape:connector-curvature="0" />
        <path
           d="m 940.70001,560.90002 79.29999,0 0,5.7 -79.29999,0 0,-5.7 z"
           class="st24"
           style="fill:#d9dcf4"
           id="path299"
           inkscape:connector-curvature="0" />
      </g>
      <g
         id="g301">
        <path
           d="m 940.70001,616.5 40.3,0 0,5.7 -40.3,0 0,-5.7 z"
           class="st24"
           style="fill:#d9dcf4"
           id="path303"
           inkscape:connector-curvature="0" />
        <path
           d="m 940.70001,604.09998 79.29999,0 0,5.7 -79.29999,0 0,-5.7 z"
           class="st24"
           style="fill:#d9dcf4"
           id="path305"
           inkscape:connector-curvature="0" />
        <path
           d="m 940.70001,591.70001 79.29999,0 0,5.7 -79.29999,0 0,-5.7 z"
           class="st24"
           style="fill:#d9dcf4"
           id="path307"
           inkscape:connector-curvature="0" />
      </g>
    </g>
    <g
       id="g309"
       transform="translate(366.23154,0)">
      <g
         id="g311">
        <path
           d="m 637.40002,1100 -28.5,0 -12.30004,-218.40002 53,0 z"
           class="st25"
           style="fill:#0074d3"
           id="path313"
           inkscape:connector-curvature="0" />
        <path
           d="m 813.79999,1100 -28.5,0 L 773,881.59998 l 53,0 z"
           class="st25"
           style="fill:#0074d3"
           id="path315"
           inkscape:connector-curvature="0" />
      </g>
      <path
         class="st26"
         d="m 820.4,867.8 -218.2,0 C 493,759.8 415.4,613.2 711.3,613.2 c 295.9,0 218.4,146.6 109.1,254.6 z"
         style="fill:#2090ed"
         id="path317"
         inkscape:connector-curvature="0" />
      <path
         class="st25"
         d="m 809.7,867.8 -196.8,0 c -98.5,-97.3 -168.5,-229.6 98.4,-229.6 266.9,0 196.9,132.2 98.4,229.6 z"
         style="fill:#0074d3"
         id="path319"
         inkscape:connector-curvature="0" />
      <path
         class="st26"
         d="m 551.8,872.8 c 0,0 0,0 0,0 -0.1,-12.9 12.3,-24 27.7,-24.6 87.9,0 175.7,0 263.6,0 15.4,0.7 27.9,11.7 27.7,24.6 0,0 0,0 0,0 -0.6,79.8 -318.2,86.3 -319,0 z"
         style="fill:#2090ed"
         id="path321"
         inkscape:connector-curvature="0" />
    </g>
    <text
       xml:space="preserve"
       style="font-style:normal;font-weight:normal;font-size:22.07224464px;line-height:125%;font-family:sans-serif;letter-spacing:0px;word-spacing:0px;fill:#ffffff;fill-opacity:1;stroke:none;stroke-width:1px;stroke-linecap:butt;stroke-linejoin:miter;stroke-opacity:1"
       x="880.98712"
       y="214.45074"
       id="text4615"
       sodipodi:linespacing="125%"
       transform="scale(1.3109575,0.76280122)"><tspan
         sodipodi:role="line"
         id="tspan4617"
         x="880.98712"
         y="214.45074"
         style="font-style:normal;font-variant:normal;font-weight:bold;font-stretch:normal;font-size:132.43347168px;font-family:'Droid Serif';-inkscape-font-specification:'Droid Serif Bold';fill:#ffffff" /></text>
    <path
       style="fill:none;fill-rule:evenodd;stroke:#000000;stroke-width:4.48979568;stroke-linecap:round;stroke-linejoin:miter;stroke-miterlimit:4;stroke-dasharray:none;stroke-opacity:1"
       d="m 979.51286,432.46505 23.50784,0"
       id="path4465"
       inkscape:path-effect="#path-effect4467"
       inkscape:original-d="m 979.51286,432.46505 23.50784,0"
       inkscape:connector-curvature="0" />
    <path
       inkscape:connector-curvature="0"
       inkscape:original-d="m 1045.2016,432.46505 23.5079,0"
       inkscape:path-effect="#path-effect4563"
       id="path4561"
       d="m 1045.2016,432.46505 23.5079,0"
       style="fill:none;fill-rule:evenodd;stroke:#000000;stroke-width:4.48979568;stroke-linecap:round;stroke-linejoin:miter;stroke-miterlimit:4;stroke-dasharray:none;stroke-opacity:1" />
    <g
       id="g4752">
      <text
         sodipodi:linespacing="125%"
         id="text4581"
         y="410.42126"
         x="563.12805"
         style="font-style:normal;font-weight:normal;font-size:16.83673477px;line-height:125%;font-family:sans-serif;letter-spacing:0px;word-spacing:0px;fill:#ffffff;fill-opacity:1;stroke:none;stroke-width:1px;stroke-linecap:butt;stroke-linejoin:miter;stroke-opacity:1"
         xml:space="preserve"><tspan
           style="font-style:normal;font-variant:normal;font-weight:normal;font-stretch:normal;font-size:101.02040863px;font-family:'Arima Madurai';-inkscape-font-specification:'Arima Madurai';fill:#ffffff"
           y="410.42126"
           x="563.12805"
           id="tspan4583"
           sodipodi:role="line">C++</tspan></text>
      <text
         xml:space="preserve"
         style="font-style:normal;font-weight:normal;font-size:16.83673477px;line-height:125%;font-family:sans-serif;letter-spacing:0px;word-spacing:0px;fill:#ffffff;fill-opacity:1;stroke:none;stroke-width:1px;stroke-linecap:butt;stroke-linejoin:miter;stroke-opacity:1"
         x="1388.567"
         y="412.80234"
         id="text4611"
         sodipodi:linespacing="125%"><tspan
           sodipodi:role="line"
           id="tspan4613"
           x="1388.567"
           y="412.80234"
           style="font-style:normal;font-variant:normal;font-weight:normal;font-stretch:normal;font-size:101.02040863px;font-family:'Arima Madurai';-inkscape-font-specification:'Arima Madurai';fill:#ffffff">C#</tspan></text>
      <text
         sodipodi:linespacing="125%"
         id="text4698"
         y="243.2932"
         x="1296.3007"
         style="font-style:normal;font-weight:normal;font-size:16.83673477px;line-height:125%;font-family:sans-serif;letter-spacing:0px;word-spacing:0px;fill:#ffffff;fill-opacity:1;stroke:none;stroke-width:1px;stroke-linecap:butt;stroke-linejoin:miter;stroke-opacity:1"
         xml:space="preserve"><tspan
           style="font-style:normal;font-variant:normal;font-weight:normal;font-stretch:normal;font-size:101.02040863px;font-family:'Arima Madurai';-inkscape-font-specification:'Arima Madurai';fill:#ffffff"
           y="243.2932"
           x="1296.3007"
           id="tspan4700"
           sodipodi:role="line">PHP</tspan></text>
      <text
         xml:space="preserve"
         style="font-style:normal;font-weight:normal;font-size:16.83673477px;line-height:125%;font-family:sans-serif;letter-spacing:0px;word-spacing:0px;fill:#ffffff;fill-opacity:1;stroke:none;stroke-width:1px;stroke-linecap:butt;stroke-linejoin:miter;stroke-opacity:1"
         x="603.74957"
         y="255.64012"
         id="text4702"
         sodipodi:linespacing="125%"><tspan
           sodipodi:role="line"
           id="tspan4704"
           x="603.74957"
           y="255.64012"
           style="font-style:normal;font-variant:normal;font-weight:normal;font-stretch:normal;font-size:101.02040863px;font-family:'Arima Madurai';-inkscape-font-specification:'Arima Madurai';fill:#ffffff">HTML</tspan></text>
      <text
         sodipodi:linespacing="125%"
         id="text4706"
         y="142.27278"
         x="919.15771"
         style="font-style:normal;font-weight:normal;font-size:16.83673477px;line-height:125%;font-family:sans-serif;letter-spacing:0px;word-spacing:0px;fill:#ffffff;fill-opacity:1;stroke:none;stroke-width:1px;stroke-linecap:butt;stroke-linejoin:miter;stroke-opacity:1"
         xml:space="preserve"><tspan
           style="font-style:normal;font-variant:normal;font-weight:normal;font-stretch:normal;font-size:101.02040863px;font-family:'Arima Madurai';-inkscape-font-specification:'Arima Madurai';fill:#ffffff"
           y="142.27278"
           x="919.15771"
           id="tspan4708"
           sodipodi:role="line">UiPath</tspan></text>
    </g>
  </g>
</svg>
