<?xml version="1.0" encoding="UTF-8" standalone="no"?>
<!-- Generator: Adobe Illustrator 21.0.0, SVG Export Plug-In . SVG Version: 6.00 Build 0)  -->

<svg
   xmlns:dc="http://purl.org/dc/elements/1.1/"
   xmlns:cc="http://creativecommons.org/ns#"
   xmlns:rdf="http://www.w3.org/1999/02/22-rdf-syntax-ns#"
   xmlns:svg="http://www.w3.org/2000/svg"
   xmlns="http://www.w3.org/2000/svg"
   xmlns:sodipodi="http://sodipodi.sourceforge.net/DTD/sodipodi-0.dtd"
   xmlns:inkscape="http://www.inkscape.org/namespaces/inkscape"
   version="1.1"
   id="Layer_1"
   x="0px"
   y="0px"
   width="999.99994"
   height="899.99994"
   viewBox="0 0 999.99994 899.99994"
   xml:space="preserve"
   inkscape:version="0.91 r13725"
   sodipodi:docname="ownItLikeAPro.svg"><metadata
     id="metadata5125"><rdf:RDF><cc:Work
         rdf:about=""><dc:format>image/svg+xml</dc:format><dc:type
           rdf:resource="http://purl.org/dc/dcmitype/StillImage" /><dc:title></dc:title></cc:Work></rdf:RDF></metadata><defs
     id="defs5123" /><sodipodi:namedview
     pagecolor="#ffffff"
     bordercolor="#666666"
     borderopacity="1"
     objecttolerance="10"
     gridtolerance="10"
     guidetolerance="10"
     inkscape:pageopacity="0"
     inkscape:pageshadow="2"
     inkscape:window-width="1920"
     inkscape:window-height="1017"
     id="namedview5121"
     showgrid="true"
     fit-margin-top="0"
     fit-margin-left="0"
     fit-margin-right="0"
     fit-margin-bottom="0"
     inkscape:zoom="0.35355339"
     inkscape:cx="-57.430287"
     inkscape:cy="669.58952"
     inkscape:window-x="-8"
     inkscape:window-y="-8"
     inkscape:window-maximized="1"
     inkscape:current-layer="Layer_1"
     showguides="true"
     inkscape:guide-bbox="true"
     inkscape:snap-bbox="true"
     inkscape:bbox-nodes="true"><inkscape:grid
       type="xygrid"
       id="grid5889"
       originx="-790.00003"
       originy="-39.999975" /></sodipodi:namedview><style
     type="text/css"
     id="style4773">
	.st0{fill:#FFD7B6;}
	.st1{fill:#EDBAAE;}
	.st2{fill:#FFFFFF;}
	.st3{fill:#46ABD3;}
	.st4{fill:#FFFBDF;}
	.st5{fill:#5ABFE8;}
	.st6{fill:#ED655F;}
	.st7{fill:#B6E4F2;}
	.st8{fill:#513146;}
	.st9{fill:#FFCA68;}
	.st10{fill:#FFFDF3;}
	.st11{fill:#858E95;}
	.st12{fill:#C3E9FC;}
	.st13{fill:#493848;}
	.st14{fill:#9DC6D6;}
	.st15{fill:#B7C5CE;}
	.st16{fill:#8795A0;}
	.st17{fill:#677782;}
	.st18{fill:#E0DED7;}
	.st19{fill:#477499;}
	.st20{fill:#C65978;}
	.st21{fill:#5FD2C1;}
	.st22{fill:#3AA4B2;}
	.st23{fill:#3C5F7C;}
	.st24{fill:#B4CFD6;}
	.st25{fill:#702A2A;}
	.st26{fill:#E8F4F7;}
	.st27{fill:#9F5049;}
	.st28{fill:#CEE4EA;}
	.st29{fill:#99B8BF;}
	.st30{fill:#3B1A37;}
	.st31{fill:#8E4357;}
	.st32{fill:#AF627A;}
	.st33{fill:#773252;}
	.st34{fill:#F2AE75;}
	.st35{fill:#C97D53;}
	.st36{fill:#A02D24;}
	.st37{fill:#FF6548;}
	.st38{fill:#3D253B;}
	.st39{fill:#594F59;}
	.st40{fill:#E5BAA1;}
	.st41{fill:#CE9B82;}
	.st42{fill:#F2CFBD;}
</style><g
     id="g5473"
     transform="matrix(0.99299059,0,0,1.0081247,-334.11213,-835.47688)"><g
       transform="matrix(0.6,0,0,0.6,0,720.00001)"
       id="g4777"><path
         id="path4779"
         d="m 1557.853,320.865 c -1.2103,0 -2.3872,-0.4773 -3.2598,-1.3503 -1.0906,-1.09 -1.5632,-2.6528 -1.2616,-4.1643 l 9.1283,-45.6417 c 0.334,-1.6673 1.5577,-3.0157 3.1849,-3.5088 1.6263,-0.4908 3.3939,-0.05 4.5962,1.1526 l 36.5139,36.5135 c 1.203,1.2026 1.6451,2.9689 1.1526,4.5961 -0.4926,1.6276 -1.8406,2.8518 -3.5083,3.185 l -45.6422,9.1283 c -0.3007,0.0604 -0.6032,0.0896 -0.904,0.0896 z m 11.9594,-40.9006 -6.0819,30.4131 30.4131,-6.0828 -24.3312,-24.3303 z"
         class="st1"
         inkscape:connector-curvature="0"
         style="fill:#edbaae" /><g
         id="g4781"><path
           id="path4783"
           d="m 1603.4952,311.7368 c -1.1797,0 -2.3602,-0.4503 -3.2598,-1.3503 l -36.514,-36.5135 c -0.8654,-0.8649 -1.3507,-2.0374 -1.3507,-3.2602 0,-1.2228 0.4854,-2.3953 1.3507,-3.2602 l 84.7631,-84.763 c 1.7992,-1.8001 4.7203,-1.8001 6.5195,0 l 36.5139,36.5135 c 0.8654,0.8649 1.3507,2.0374 1.3507,3.2602 0,1.2229 -0.4854,2.3953 -1.3507,3.2602 l -84.7629,84.763 c -0.8997,0.9 -2.0802,1.3503 -3.2598,1.3503 z m -29.9935,-41.124 29.9935,29.9935 78.2426,-78.243 -29.9935,-29.993 -78.2426,78.2425 z"
           class="st1"
           inkscape:connector-curvature="0"
           style="fill:#edbaae" /><path
           id="path4785"
           d="m 1674.5654,240.6661 c -1.1797,0 -2.3602,-0.4502 -3.2598,-1.3503 l -36.5131,-36.513 c -1.801,-1.8005 -1.801,-4.7199 -10e-4,-6.5204 l 13.692,-13.6928 c 0.8654,-0.8645 2.0377,-1.3503 3.2606,-1.3503 1.2229,0 2.3953,0.4858 3.2598,1.3503 l 36.5139,36.5135 c 0.8654,0.8649 1.3507,2.0374 1.3507,3.2602 0,1.2229 -0.4854,2.3958 -1.3507,3.2602 l -13.6927,13.6924 c -0.8996,0.9 -2.0801,1.3502 -3.2597,1.3502 z m -29.9926,-41.1235 29.9927,29.993 7.1724,-7.1724 -29.9935,-29.993 -7.1716,7.1724 z"
           class="st1"
           inkscape:connector-curvature="0"
           style="fill:#edbaae" /><path
           id="path4787"
           d="m 1585.2386,293.4802 c -1.1796,0 -2.3601,-0.4502 -3.2598,-1.3503 -1.8009,-1.8005 -1.8009,-4.7199 0,-6.5204 l 71.0702,-71.0706 c 1.7992,-1.8001 4.7203,-1.8001 6.5195,0 1.801,1.8005 1.801,4.7199 0,6.5204 l -71.0702,71.0706 c -0.8994,0.9001 -2.08,1.3503 -3.2597,1.3503 z"
           class="st1"
           inkscape:connector-curvature="0"
           style="fill:#edbaae" /></g></g><g
       transform="matrix(0.6,0,0,0.6,0,720.00001)"
       id="g4789"><path
         id="path4791"
         d="m 769.5546,1396.3743 c -12.7509,0 -25.5018,-4.8536 -35.2091,-14.5609 -19.4146,-19.4146 -19.4146,-51.0037 0,-70.4182 19.4155,-19.4154 51.0051,-19.4136 70.4187,0 19.4146,19.4146 19.4146,51.0037 0,70.4182 -9.7073,9.7072 -22.4582,14.5609 -35.2096,14.5609 z m 5e-4,-90.3235 c -10.3907,0 -20.7783,3.954 -28.6891,11.8639 -15.8193,15.8198 -15.8193,41.5594 0,57.3792 15.8189,15.818 41.5589,15.819 57.3778,0 15.8193,-15.8197 15.8193,-41.5593 0,-57.3792 -7.9081,-7.9081 -18.3002,-11.8639 -28.6887,-11.8639 z"
         class="st1"
         inkscape:connector-curvature="0"
         style="fill:#edbaae" /><path
         id="path4793"
         d="m 724.5653,1396.205 c -1.1801,0 -2.3597,-0.4502 -3.2602,-1.3507 -1.8005,-1.8 -1.8005,-4.7195 0,-6.5195 l 13.0404,-13.0409 c 1.801,-1.8009 4.7195,-1.8009 6.5204,0 1.8005,1.8 1.8005,4.7195 0,6.5195 l -13.0404,13.0409 c -0.9005,0.9005 -2.0801,1.3507 -3.2602,1.3507 z"
         class="st1"
         inkscape:connector-curvature="0"
         style="fill:#edbaae" /><path
         id="path4795"
         d="m 681.5319,1449.3744 c -3.778,0 -7.556,-1.4381 -10.4322,-4.3134 0,0 -4e-4,0 -4e-4,-9e-4 -2.7866,-2.7861 -4.3215,-6.4917 -4.3215,-10.4323 0,-3.9406 1.5349,-7.646 4.3215,-10.4321 l 35.8611,-35.8611 c 5.7523,-5.7523 15.1129,-5.7523 20.8652,0 2.7866,2.7853 4.3214,6.4907 4.3214,10.4313 0,3.9406 -1.5349,7.646 -4.3214,10.4321 l -35.8615,35.8621 c -2.8762,2.8762 -6.6542,4.3143 -10.4322,4.3143 z m -3.9126,-10.8347 c 2.1575,2.1576 5.6672,2.1576 7.8248,0 l 35.8611,-35.8611 c 1.045,-1.0454 1.6208,-2.4349 1.6208,-3.9126 0,-1.4777 -0.5754,-2.8662 -1.6204,-3.9108 -2.1575,-2.1576 -5.6681,-2.1567 -7.8248,-10e-4 l -35.8611,35.8611 c -1.045,1.0455 -1.6209,2.4349 -1.6209,3.9126 0,1.4778 0.5758,2.8672 1.6205,3.9118 l 0,0 z"
         class="st1"
         inkscape:connector-curvature="0"
         style="fill:#edbaae" /></g><g
       transform="matrix(0.6,0,0,0.6,0,720.00001)"
       id="g4797"><g
         id="g4799"><path
           id="path4801"
           d="m 2069.8711,1169.3718 -34.7562,0 c -2.5466,0 -4.6106,-2.0638 -4.6106,-4.6105 l 0,-32.7472 c -12.9327,-7.7235 -20.8535,-21.5604 -20.8535,-36.7651 0,-23.6226 19.2183,-42.8417 42.8417,-42.8417 23.6235,0 42.8425,19.2191 42.8425,42.8417 0,15.2039 -7.9207,29.0416 -20.8535,36.7651 l 0,32.7472 c -10e-5,2.5467 -2.064,4.6105 -4.6104,4.6105 z m -30.1458,-9.2209 25.5352,0 0,-30.8517 c 0,-1.7317 0.9697,-3.3165 2.5115,-4.1053 11.3137,-5.7856 18.342,-17.2596 18.342,-29.9448 0,-18.5383 -15.0823,-33.6207 -33.6216,-33.6207 -18.5383,0 -33.6206,15.0824 -33.6206,33.6207 0,12.6852 7.0283,24.1602 18.342,29.9448 1.5416,0.7888 2.5115,2.3737 2.5115,4.1053 l 0,30.8517 z"
           class="st1"
           inkscape:connector-curvature="0"
           style="fill:#edbaae" /><path
           id="path4803"
           d="m 2052.4924,1047.1458 c -2.5466,0 -4.6105,-2.0638 -4.6105,-4.6105 l 0,-13.3228 c 0,-2.5465 2.0638,-4.6105 4.6105,-4.6105 2.5467,0 4.6106,2.064 4.6106,4.6105 l 0,13.3228 c 0,2.5466 -2.0639,4.6105 -4.6106,4.6105 z"
           class="st1"
           inkscape:connector-curvature="0"
           style="fill:#edbaae" /><path
           id="path4805"
           d="m 2015.2185,1062.5856 c -1.1796,0 -2.3601,-0.4502 -3.2598,-1.3507 l -9.4209,-9.4209 c -1.801,-1.8002 -1.801,-4.7195 0,-6.5195 1.7992,-1.801 4.7203,-1.801 6.5195,0 l 9.4209,9.4209 c 1.801,1.8 1.801,4.7195 0,6.5195 -0.8995,0.9005 -2.08,1.3507 -3.2597,1.3507 z"
           class="st1"
           inkscape:connector-curvature="0"
           style="fill:#edbaae" /><path
           id="path4807"
           d="m 1999.7787,1099.8595 -13.3226,0 c -2.5466,0 -4.6106,-2.064 -4.6106,-4.6105 0,-2.5466 2.064,-4.6105 4.6106,-4.6105 l 13.3226,0 c 2.5466,0 4.6106,2.0638 4.6106,4.6105 0,2.5465 -2.064,4.6105 -4.6106,4.6105 z"
           class="st1"
           inkscape:connector-curvature="0"
           style="fill:#edbaae" /><path
           id="path4809"
           d="m 2005.7976,1146.5543 c -1.1797,0 -2.3602,-0.4502 -3.2598,-1.3507 -1.801,-1.8 -1.801,-4.7195 0,-6.5195 l 9.4209,-9.4209 c 1.7992,-1.801 4.7203,-1.801 6.5195,0 1.801,1.8 1.801,4.7195 0,6.5195 l -9.4209,9.4209 c -0.8995,0.9005 -2.08,1.3507 -3.2597,1.3507 z"
           class="st1"
           inkscape:connector-curvature="0"
           style="fill:#edbaae" /><path
           id="path4811"
           d="m 2099.1873,1146.5543 c -1.1797,0 -2.3601,-0.4502 -3.2598,-1.3507 l -9.4209,-9.4209 c -1.801,-1.8 -1.801,-4.7195 0,-6.5195 1.7993,-1.801 4.7205,-1.801 6.5195,0 l 9.4209,9.4209 c 1.801,1.8 1.801,4.7195 0,6.5195 -0.8994,0.9005 -2.0801,1.3507 -3.2597,1.3507 z"
           class="st1"
           inkscape:connector-curvature="0"
           style="fill:#edbaae" /><path
           id="path4813"
           d="m 2118.5288,1099.8595 -13.3225,0 c -2.5466,0 -4.6106,-2.064 -4.6106,-4.6105 0,-2.5466 2.064,-4.6105 4.6106,-4.6105 l 13.3225,0 c 2.5466,0 4.6106,2.0638 4.6106,4.6105 0,2.5465 -2.064,4.6105 -4.6106,4.6105 z"
           class="st1"
           inkscape:connector-curvature="0"
           style="fill:#edbaae" /><path
           id="path4815"
           d="m 2089.7664,1062.5856 c -1.1797,0 -2.3601,-0.4502 -3.2598,-1.3507 -1.801,-1.8 -1.801,-4.7195 0,-6.5195 l 9.4209,-9.4209 c 1.7993,-1.801 4.7205,-1.801 6.5195,0 1.801,1.8 1.801,4.7194 0,6.5195 l -9.4209,9.4209 c -0.8996,0.9005 -2.0801,1.3507 -3.2597,1.3507 z"
           class="st1"
           inkscape:connector-curvature="0"
           style="fill:#edbaae" /></g><path
         id="path4817"
         d="m 2064.1548,1109.6136 c -1.2715,0 -2.5369,-0.5223 -3.4473,-1.5471 l -4.3303,-4.8698 -4.3296,4.8698 c -0.8743,0.9843 -2.1287,1.5471 -3.4453,1.5471 l -7e-4,0 c -1.3167,0 -2.571,-0.5637 -3.4463,-1.548 l -7.7694,-8.7446 c -1.6912,-1.9037 -1.5192,-4.8176 0.3845,-6.5096 1.9027,-1.6912 4.8176,-1.5173 6.5096,0.3845 l 4.3232,4.8671 4.3286,-4.868 c 0.8745,-0.9841 2.1287,-1.547 3.4453,-1.547 1.3164,0 2.5708,0.5629 3.4453,1.547 l 7.7756,8.7448 c 1.6921,1.9027 1.521,4.8167 -0.3818,6.5087 -0.8778,0.7815 -1.9718,1.1651 -3.0614,1.1651 z"
         class="st1"
         inkscape:connector-curvature="0"
         style="fill:#edbaae" /></g><g
       transform="matrix(0.6,0,0,0.6,0,720.00001)"
       id="g4819"><g
         id="g4821"><path
           id="path4823"
           d="m 792.1052,481.9458 c -48.4296,0 -87.8301,-39.4005 -87.8301,-87.8301 0,-48.4296 39.4005,-87.8301 87.8301,-87.8301 48.4295,0 87.8301,39.4005 87.8301,87.8301 0,48.4296 -39.4006,87.8301 -87.8301,87.8301 z m 0,-162.3288 c -41.0789,0 -74.4988,33.4199 -74.4988,74.4987 0,41.0788 33.4199,74.4987 74.4988,74.4987 41.0788,0 74.4987,-33.4199 74.4987,-74.4987 0,-41.0788 -33.4199,-74.4987 -74.4987,-74.4987 z"
           class="st1"
           inkscape:connector-curvature="0"
           style="fill:#edbaae" /><path
           id="path4825"
           d="m 837.1965,401.1735 -48.6202,0 c -4.1143,0 -7.4498,-3.3355 -7.4498,-7.4499 0,-4.1144 3.3355,-7.4499 7.4498,-7.4499 l 48.6202,0 c 4.1144,0 7.4499,3.3355 7.4499,7.4499 0,4.1144 -3.3355,7.4499 -7.4499,7.4499 z"
           class="st1"
           inkscape:connector-curvature="0"
           style="fill:#edbaae" /><path
           id="path4827"
           d="m 791.7138,398.0367 c -0.01,0 -0.0199,0 -0.0302,0 -2.3817,-0.0164 -4.2997,-1.9605 -4.2836,-4.3426 l 0.3921,-57.6385 c 0.0161,-2.3718 1.944,-4.2836 4.3123,-4.2836 0.01,0 0.0199,0 0.0303,0 2.3817,0.0164 4.2997,1.9605 4.2836,4.3426 l -0.3921,57.6385 c -0.0161,2.3717 -1.9441,4.2836 -4.3124,4.2836 z"
           class="st1"
           inkscape:connector-curvature="0"
           style="fill:#edbaae" /></g></g><g
       transform="matrix(0.6,0,0,0.6,0,720.00001)"
       id="g4829"><path
         id="path4831"
         d="m 2039.8073,1376.8453 c -0.6357,0 -1.2795,-0.1647 -1.8676,-0.5105 -1.7551,-1.0328 -2.3405,-3.2941 -1.3075,-5.0499 2.2449,-3.8136 4.4799,-7.6912 6.6438,-11.5254 1.0022,-1.7739 3.2516,-2.3998 5.0248,-1.3994 1.7739,1.0013 2.4006,3.2509 1.3992,5.0248 -2.1854,3.873 -4.4429,7.7902 -6.7103,11.6425 -0.6872,1.1678 -1.9182,1.8179 -3.1824,1.8179 z"
         class="st2"
         inkscape:connector-curvature="0"
         style="fill:#ffffff" /><path
         id="path4833"
         d="m 2059.2759,1341.6111 c -0.571,0 -1.1509,-0.1333 -1.6929,-0.4133 -1.8091,-0.9365 -2.5161,-3.1625 -1.5803,-4.9707 4.0774,-7.8801 8.0674,-15.9459 11.8594,-23.9738 0.8699,-1.8424 3.0679,-2.6312 4.9104,-1.7604 1.8423,0.8699 2.6301,3.0688 1.7603,4.9103 -3.8296,8.1089 -7.8604,16.2556 -11.9783,24.2142 -0.6556,1.267 -1.9441,1.9937 -3.2786,1.9937 z m -1318.8363,-0.553 c -1.3359,0 -2.6249,-0.7284 -3.28,-1.9963 -4.1166,-7.9702 -8.1409,-16.1233 -11.9621,-24.2312 -0.868,-1.8424 -0.0783,-4.0405 1.7645,-4.9086 1.8447,-0.869 4.0414,-0.078 4.9086,1.764 3.783,8.0278 7.7676,16.0989 11.8432,23.9899 0.9348,1.8101 0.2252,4.0352 -1.5848,4.9698 -0.5413,0.2801 -1.1194,0.4124 -1.6894,0.4124 z m 1341.7906,-48.0536 c -0.4844,0 -0.9771,-0.096 -1.4507,-0.299 -1.873,-0.8024 -2.7402,-2.9708 -1.938,-4.8429 3.4949,-8.1566 6.887,-16.4916 10.083,-24.7715 0.7329,-1.901 2.8696,-2.8466 4.7681,-2.1135 1.9009,0.733 2.8472,2.868 2.1133,4.769 -3.2273,8.3638 -6.6536,16.7823 -10.1836,25.021 -0.5996,1.3985 -1.9612,2.2369 -3.3921,2.2369 z M 717.519,1292.4182 c -1.4327,0 -2.7947,-0.8392 -3.3935,-2.2395 -3.5245,-8.2457 -6.9446,-16.6708 -10.1656,-25.0399 -0.7316,-1.9009 0.2161,-4.035 2.1175,-4.7671 1.9009,-0.7295 4.0351,0.2161 4.7667,2.1179 3.1891,8.2854 6.5754,16.6257 10.0648,24.7896 0.8005,1.873 -0.0688,4.0405 -1.9419,4.8411 -0.4728,0.2025 -0.9644,0.2979 -1.448,0.2979 z m 1384.0635,-49.5602 c -0.3979,0 -0.8032,-0.065 -1.2012,-0.2017 -1.926,-0.6637 -2.949,-2.7637 -2.2864,-4.6888 2.8923,-8.3936 5.6677,-16.9526 8.2485,-25.4407 0.5935,-1.9478 2.6538,-3.0499 4.6023,-2.4556 1.9487,0.5925 3.0483,2.6528 2.4558,4.6024 -2.6079,8.5726 -5.4102,17.2181 -8.3313,25.6963 -0.5267,1.5282 -1.9567,2.4881 -3.4877,2.4881 z m -1403.3804,-0.6213 c -1.5317,0 -2.9626,-0.9617 -3.488,-2.4907 -2.9131,-8.4808 -5.7095,-17.1327 -8.312,-25.717 -0.5907,-1.9487 0.5106,-4.0081 2.4597,-4.5997 1.9492,-0.5907 4.009,0.5106 4.6002,2.4601 2.5763,8.4979 5.3448,17.0643 8.2291,25.4596 0.6619,1.927 -0.3638,4.0251 -2.2899,4.687 -0.3972,0.1359 -0.8015,0.2007 -1.1991,0.2007 z m 1419.0247,-50.801 c -0.3125,0 -0.6304,-0.04 -0.9463,-0.1234 -1.9695,-0.5214 -3.1428,-2.5403 -2.6223,-4.5096 2.27,-8.5745 4.4133,-17.3137 6.3708,-25.9738 0.4495,-1.9865 2.426,-3.2354 4.4106,-2.7843 1.9866,0.4485 3.2336,2.4232 2.7844,4.4106 -1.9766,8.7473 -4.1414,17.574 -6.4341,26.2349 -0.4376,1.6533 -1.9305,2.7456 -3.5631,2.7456 z m -1434.6279,-0.6602 c -1.6344,0 -3.1279,-1.094 -3.5641,-2.7491 -2.2872,-8.6735 -4.4448,-17.5073 -6.4124,-26.2546 -0.4471,-1.9874 0.8015,-3.9613 2.7888,-4.408 1.9887,-0.4448 3.9617,0.8024 4.4079,2.7888 1.9486,8.661 4.0842,17.4056 6.3484,25.9935 0.5195,1.9694 -0.656,3.9874 -2.6259,4.507 -0.315,0.083 -0.6316,0.1224 -0.9427,0.1224 z m 1446.4765,-51.7618 c -0.2268,0 -0.4556,-0.021 -0.6863,-0.064 -2.0017,-0.3763 -3.3191,-2.3052 -2.9426,-4.307 1.637,-8.7086 3.1382,-17.5802 4.4626,-26.3672 0.3035,-2.0144 2.1792,-3.4003 4.1963,-3.0978 2.0144,0.3035 3.4014,2.1829 3.0979,4.1963 -1.3374,8.8762 -2.8538,17.8361 -4.5081,26.632 -0.3322,1.7713 -1.881,3.0077 -3.6198,3.0077 z m -1458.2823,-0.7006 c -1.7411,0 -3.2899,-1.2382 -3.6218,-3.0112 -1.647,-8.8104 -3.1558,-17.7775 -4.4835,-26.6527 -0.3012,-2.0144 1.0873,-3.8918 3.1022,-4.1936 2.0175,-0.307 3.8919,1.0869 4.1935,3.1022 1.3148,8.787 2.8082,17.6659 4.4395,26.3879 0.3741,2.0027 -0.9456,3.9298 -2.9478,4.3035 -0.2292,0.043 -0.4574,0.064 -0.6821,0.064 z m 1466.2877,-52.4436 c -0.1387,0 -0.2791,-0.01 -0.4214,-0.023 -2.0234,-0.2305 -3.4778,-2.0576 -3.248,-4.0819 1.0022,-8.8167 1.8577,-17.7729 2.542,-26.6202 0.1567,-2.0306 1.9316,-3.5389 3.9622,-3.3931 2.0305,0.1576 3.5498,1.9307 3.3931,3.9622 -0.6917,8.9355 -1.5552,17.981 -2.5674,26.885 -0.2144,1.882 -1.8099,3.2714 -3.6605,3.2714 z m -1474.2454,-0.7438 c -1.8523,0 -3.4484,-1.3912 -3.6609,-3.2751 -1.004,-8.9076 -1.859,-17.9602 -2.5416,-26.9066 -0.1553,-2.0315 1.3661,-3.8036 3.3971,-3.9585 2.0225,-0.1477 3.8032,1.3661 3.9581,3.3966 0.6758,8.859 1.5227,17.8225 2.5173,26.6418 0.2278,2.0244 -1.2283,3.8506 -3.2521,4.0784 -0.1405,0.016 -0.2801,0.023 -0.4179,0.023 z m 1478.3885,-52.8353 c -0.051,0 -0.1025,-9e-4 -0.1548,0 -2.0352,-0.085 -3.6172,-1.8027 -3.5334,-3.8379 0.3655,-8.85 0.5771,-17.8477 0.6274,-26.7436 0.012,-2.0297 1.6606,-3.6677 3.6875,-3.6677 0.01,0 0.014,0 0.022,0 2.0369,0.0117 3.6794,1.6722 3.6677,3.7091 -0.051,8.9833 -0.2649,18.0692 -0.634,27.0065 -0.081,1.9839 -1.7153,3.5363 -3.6821,3.5363 z m -1482.4798,-0.787 c -1.9684,0 -3.6028,-1.5552 -3.6826,-3.5398 -0.3607,-8.9455 -0.5646,-18.0359 -0.606,-27.0192 -0.01,-2.0369 1.6344,-3.6965 3.6713,-3.7055 0.006,0 0.0117,0 0.0175,0 2.0293,0 3.6785,1.6398 3.688,3.6713 0.041,8.8959 0.2427,17.8981 0.5997,26.7562 0.0819,2.0352 -1.5012,3.7523 -3.5367,3.8344 -0.0503,0 -0.1012,0 -0.1512,0 z m 1482.7815,-52.9668 c -1.9866,0 -3.6255,-1.5795 -3.6848,-3.5776 -0.2666,-8.8896 -0.696,-17.8774 -1.2778,-26.7148 -0.134,-2.0324 1.4058,-3.7884 3.438,-3.9225 2.0083,-0.1252 3.7893,1.4048 3.9226,3.438 0.5881,8.9247 1.022,18.0008 1.2905,26.9778 0.061,2.036 -1.54,3.737 -3.5759,3.7974 -0.038,8e-4 -0.076,0.002 -0.1126,0.002 z M 658.5001,977.7217 c -0.0383,0 -0.0775,-9e-4 -0.1161,-0.002 -2.036,-0.063 -3.6353,-1.765 -3.5723,-3.801 0.2778,-8.9698 0.7217,-18.0467 1.3192,-26.9805 0.1364,-2.0324 1.9045,-3.5569 3.9266,-3.4344 2.0324,0.136 3.57,1.8937 3.434,3.9261 -0.5916,8.8464 -1.0315,17.8351 -1.3066,26.7175 -0.0617,1.9974 -1.7002,3.5741 -3.6848,3.5741 z m 1479.4921,-52.8164 c -1.8687,0 -3.4707,-1.4147 -3.665,-3.3138 -0.9023,-8.8347 -1.9775,-17.7684 -3.1958,-26.5536 -0.28,-2.018 1.1282,-3.8807 3.1462,-4.1603 2.0188,-0.2841 3.8811,1.1288 4.1602,3.1463 1.231,8.8726 2.3171,17.8954 3.2283,26.8184 0.2073,2.0261 -1.2688,3.837 -3.2949,4.0441 -0.1271,0.0126 -0.254,0.0189 -0.379,0.0189 z m -1475.901,-0.8122 c -0.1265,0 -0.2544,-0.006 -0.3827,-0.0198 -2.0266,-0.2089 -3.4998,-2.0207 -3.2908,-4.0468 0.9203,-8.9194 2.0162,-17.9409 3.2575,-26.8148 0.2828,-2.0171 2.1468,-3.4246 4.1639,-3.1418 2.0175,0.2823 3.4241,2.1464 3.1418,4.1639 -1.2291,8.7861 -2.3143,17.7189 -3.2251,26.5491 -0.1959,1.8982 -1.7979,3.3102 -3.6646,3.3102 z m 1468.5123,-52.4242 c -1.7568,0 -3.3127,-1.2598 -3.6279,-3.05 -1.5371,-8.7393 -3.2581,-17.5712 -5.114,-26.2506 -0.4258,-1.9919 0.843,-3.9522 2.8347,-4.3782 1.9937,-0.425 3.9524,0.8433 4.3782,2.8356 1.875,8.7667 3.6128,17.6879 5.1663,26.5149 0.353,2.0063 -0.9871,3.9189 -2.9934,4.272 -0.2161,0.0378 -0.4312,0.0563 -0.6439,0.0563 z M 669.5378,870.8647 c -0.2134,0 -0.4295,-0.0189 -0.6475,-0.0572 -2.0054,-0.3557 -3.3435,-2.2692 -2.9887,-4.2755 1.5628,-8.8239 3.3107,-17.7428 5.1945,-26.5082 0.4277,-1.9914 2.3885,-3.2611 4.3809,-2.8311 1.9919,0.4277 3.2593,2.3895 2.8311,4.3809 -1.8649,8.6785 -3.5952,17.5087 -5.1427,26.2452 -0.3165,1.788 -1.8721,3.0459 -3.6276,3.0459 z m 1449.8304,-51.7574 c -1.6497,0 -3.1516,-1.1148 -3.574,-2.7874 -2.1729,-8.6159 -4.5322,-17.2993 -7.0129,-25.809 -0.5701,-1.9558 0.5527,-4.0031 2.5078,-4.5731 1.9558,-0.57 4.0044,0.5525 4.5735,2.5083 2.5061,8.5961 4.8896,17.3668 7.085,26.0701 0.498,1.9752 -0.6995,3.9802 -2.6743,4.4781 -0.3036,0.0766 -0.6061,0.113 -0.9051,0.113 z M 680.8313,818.3167 c -0.2999,0 -0.6047,-0.0369 -0.9086,-0.114 -1.9747,-0.5007 -3.1702,-2.507 -2.6695,-4.4817 2.2026,-8.6902 4.5956,-17.4583 7.113,-26.0602 0.5723,-1.9545 2.6187,-3.0783 4.5758,-2.5038 1.955,0.5718 3.0761,2.6208 2.5038,4.5758 -2.4921,8.5164 -4.8613,17.1971 -7.0418,25.8008 -0.4233,1.6706 -1.9248,2.7831 -3.5727,2.7831 z M 2104.3301,767.503 c -1.5461,0 -2.9871,-0.9802 -3.5002,-2.5286 -2.8005,-8.4502 -5.7974,-16.9625 -8.905,-25.3015 -0.7114,-1.9091 0.2595,-4.0328 2.1675,-4.7443 1.9146,-0.7109 4.0342,0.2598 4.7446,2.1679 3.1392,8.4227 6.1658,17.0215 8.9951,25.5563 0.6411,1.9338 -0.407,4.0207 -2.3403,4.6619 -0.3856,0.1275 -0.7772,0.1883 -1.1617,0.1883 z M 695.9257,766.7313 c -0.3859,0 -0.7784,-0.0612 -1.1652,-0.1895 -1.9324,-0.6434 -2.9779,-2.7316 -2.335,-4.6646 2.8316,-8.5082 5.8581,-17.0787 8.9963,-25.4726 0.7136,-1.9077 2.8379,-2.8775 4.746,-2.1634 1.9081,0.7132 2.8766,2.8383 2.1634,4.746 -3.1067,8.3106 -6.103,16.7955 -8.9063,25.2195 -0.5145,1.5462 -1.954,2.5246 -3.4992,2.5246 z m 1389.5858,-49.7336 c -1.447,0 -2.8193,-0.8564 -3.4082,-2.276 -3.4038,-8.203 -7.0112,-16.4686 -10.7231,-24.5681 -0.8491,-1.8518 -0.036,-4.0409 1.8154,-4.8896 1.8542,-0.8505 4.0422,-0.0351 4.8906,1.8163 3.7488,8.1805 7.3931,16.5294 10.8301,24.8148 0.7808,1.8811 -0.1116,4.0396 -1.9927,4.8198 -0.4619,0.1919 -0.9409,0.2828 -1.4121,0.2828 z m -1370.7989,-0.538 c -0.4719,0 -0.9514,-0.091 -1.4147,-0.2837 -1.8807,-0.782 -2.7712,-2.941 -1.9892,-4.8217 3.4304,-8.2494 7.0626,-16.5541 10.795,-24.6833 0.8501,-1.851 3.0405,-2.6619 4.8911,-1.8127 1.8514,0.85 2.6631,3.04 1.8131,4.8914 -3.6956,8.0477 -7.2917,16.2696 -10.6879,24.4366 -0.5897,1.4184 -1.9616,2.2734 -3.4074,2.2734 z m 1348.3526,-48.4278 c -1.3491,0 -2.6494,-0.7433 -3.2976,-2.0311 -3.9919,-7.9315 -8.1909,-15.9085 -12.479,-23.709 -0.9807,-1.7852 -0.3287,-4.0279 1.4561,-5.009 1.7856,-0.9811 4.0278,-0.3287 5.0095,1.4556 4.3293,7.8784 8.5708,15.9346 12.603,23.9459 0.916,1.8194 0.1829,4.0369 -1.636,4.9526 -0.5322,0.268 -1.0986,0.395 -1.656,0.395 z m -1325.9817,-0.294 c -0.5583,0 -1.1248,-0.127 -1.6569,-0.3953 -1.819,-0.9167 -2.5511,-3.1346 -1.6344,-4.9536 4.0234,-7.9855 8.2512,-16.0102 12.5659,-23.8508 0.982,-1.7852 3.2251,-2.4363 5.0095,-1.4534 1.7847,0.982 2.4358,3.2247 1.4534,5.0095 -4.2715,7.7631 -8.4574,15.7081 -12.4407,23.614 -0.6485,1.2866 -1.9484,2.0296 -3.2968,2.0296 z m 1300.0439,-46.8836 c -1.2552,0 -2.4781,-0.6402 -3.1688,-1.7955 -4.5664,-7.6335 -9.3309,-15.2809 -14.162,-22.7297 -1.1085,-1.7087 -0.6213,-3.9927 1.0878,-5.1013 1.7118,-1.1089 3.9937,-0.62 5.1022,1.0878 4.8789,7.5231 9.691,15.2466 14.3025,22.9566 1.0454,1.7479 0.4763,4.013 -1.2715,5.0585 -0.5935,0.3548 -1.2464,0.5236 -1.8902,0.5236 z M 762.9446,620.735 c -0.6443,0 -1.2972,-0.1689 -1.8906,-0.5241 -1.7478,-1.0459 -2.317,-3.3107 -1.2706,-5.059 4.597,-7.6816 9.3966,-15.3831 14.2664,-22.8913 1.1094,-1.7092 3.3922,-2.1954 5.1017,-1.0873 1.7091,1.1085 2.1959,3.3926 1.0873,5.1017 -4.8217,7.4335 -9.574,15.0593 -14.126,22.6653 -0.6905,1.1545 -1.9138,1.7947 -3.1682,1.7947 z M 2007.848,575.7038 c -1.1625,0 -2.3062,-0.5475 -3.0238,-1.5714 -5.0914,-7.261 -10.3944,-14.5411 -15.7612,-21.6365 -1.2283,-1.6249 -0.9077,-3.9379 0.7167,-5.167 1.6272,-1.2296 3.937,-0.9081 5.1671,0.7172 5.4191,7.1656 10.7751,14.5177 15.9178,21.8513 1.1688,1.6677 0.7655,3.968 -0.9022,5.1373 -0.6448,0.4521 -1.3832,0.6691 -2.1144,0.6691 z m -1215.6924,-0.003 c -0.7316,0 -1.47,-0.217 -2.1144,-0.6691 -1.6677,-1.1693 -2.072,-3.4691 -0.9027,-5.1373 5.1404,-7.3313 10.4866,-14.6703 15.89,-21.8134 1.2292,-1.6245 3.5416,-1.9451 5.1666,-0.7163 1.6245,1.2287 1.9455,3.5421 0.7164,5.1665 -5.3499,7.0724 -10.6434,14.3394 -15.7325,21.5983 -0.7182,1.0233 -1.8618,1.5713 -3.0234,1.5713 z m 32.3991,-42.8322 c -0.819,0 -1.6429,-0.2711 -2.3273,-0.8289 -1.5795,-1.2868 -1.8168,-3.61 -0.53,-5.189 5.66,-6.9473 11.5236,-13.8851 17.4276,-20.6212 1.3431,-1.5313 3.6727,-1.6844 5.2048,-0.3427 1.5317,1.3431 1.6852,3.6731 0.3427,5.2053 -5.846,6.6695 -11.6514,13.5388 -17.2561,20.4177 -0.7289,0.895 -1.791,1.3588 -2.8617,1.3588 z m 1150.8397,-0.0626 c -1.0707,0 -2.1323,-0.4638 -2.8608,-1.3584 -5.5966,-6.8685 -11.4083,-13.7437 -17.274,-20.4353 -1.3427,-1.5317 -1.1896,-3.8622 0.3422,-5.2048 1.5308,-1.344 3.8613,-1.1895 5.2048,0.3422 5.9243,6.7578 11.7937,13.7014 17.4452,20.6383 1.2867,1.579 1.0499,3.9023 -0.5295,5.1891 -0.6845,0.5574 -1.5084,0.8289 -2.3279,0.8289 z M 859.9705,492.4635 c -0.9073,0 -1.8159,-0.3327 -2.5286,-1.0041 -1.4826,-1.3966 -1.5519,-3.7312 -0.1548,-5.2138 6.1418,-6.5186 12.492,-13.0193 18.8738,-19.3213 1.4498,-1.4309 3.7848,-1.416 5.2161,0.0329 1.4313,1.4493 1.4165,3.7848 -0.0328,5.2161 -6.3187,6.24 -12.6064,12.6766 -18.6883,19.1313 -0.7255,0.7699 -1.7043,1.1589 -2.6854,1.1589 z m 1079.977,-0.0878 c -0.9806,0 -1.9595,-0.3886 -2.6852,-1.1585 -6.0901,-6.4606 -12.379,-12.8972 -18.6932,-19.1313 -1.449,-1.4309 -1.4642,-3.7663 -0.033,-5.2156 1.4308,-1.4507 3.7676,-1.4651 5.2166,-0.0333 6.3763,6.2953 12.7284,12.7955 18.8778,19.3204 1.3976,1.4822 1.3291,3.8167 -0.1541,5.2138 -0.7123,0.6718 -1.6217,1.0045 -2.5286,1.0045 z m -1041.7297,-37.68 c -0.9963,0 -1.9896,-0.4012 -2.7172,-1.1931 -1.3782,-1.4998 -1.2791,-3.8334 0.2211,-5.2116 6.6028,-6.0662 13.4074,-12.0954 20.2232,-17.9197 1.5497,-1.3246 3.8766,-1.1414 5.2003,0.4079 1.3233,1.5488 1.1405,3.877 -0.4079,5.2003 -6.7492,5.7667 -13.4866,11.737 -20.0251,17.7441 -0.7082,0.6506 -1.6024,0.9721 -2.4944,0.9721 z m 1003.4787,-0.0788 c -0.8915,0 -1.7856,-0.3215 -2.4943,-0.9721 -6.5358,-6.0036 -13.2697,-11.9688 -20.0125,-17.7288 -1.5488,-1.3228 -1.7325,-3.6515 -0.4088,-5.2003 1.3228,-1.5479 3.6514,-1.7316 5.1993,-0.4088 6.8104,5.8176 13.611,11.8419 20.2124,17.9053 1.5002,1.3782 1.5992,3.7114 0.2216,5.2116 -0.7276,0.7915 -1.7207,1.1931 -2.7177,1.1931 z M 939.101,419.7661 c -1.0864,0 -2.163,-0.4777 -2.891,-1.3953 -1.2665,-1.5952 -1,-3.9153 0.5952,-5.1819 7.0292,-5.5799 14.2529,-11.1053 21.4717,-16.4227 1.6403,-1.2076 3.9491,-0.8586 5.1571,0.7825 1.208,1.6398 0.8577,3.9487 -0.782,5.1571 -7.1472,5.2647 -14.3002,10.7356 -21.2601,16.2606 -0.6782,0.5386 -1.4872,0.7997 -2.2909,0.7997 z m 921.7431,-0.0436 c -0.8032,0 -1.6119,-0.2611 -2.2899,-0.7992 -6.9509,-5.5168 -14.0927,-10.9788 -21.229,-16.2349 -1.6399,-1.208 -1.9911,-3.5169 -0.7826,-5.1571 1.2075,-1.6407 3.5182,-1.9905 5.1571,-0.7825 7.2075,5.3084 14.4214,10.8248 21.4407,16.3961 1.5947,1.267 1.8622,3.5866 0.5952,5.1823 -0.7277,0.9171 -1.8046,1.3953 -2.8915,1.3953 z m -43.2379,-31.8462 c -0.7158,0 -1.439,-0.208 -2.0756,-0.6421 -7.3219,-4.9959 -14.8356,-9.9265 -22.3322,-14.6541 -1.7227,-1.0864 -2.2386,-3.3642 -1.1526,-5.0873 1.0868,-1.7226 3.3669,-2.2391 5.0878,-1.1522 7.5713,4.7748 15.1597,9.7541 22.5554,14.8 1.6821,1.1481 2.1152,3.443 0.9672,5.1256 -0.7141,1.0468 -1.8712,1.6101 -3.05,1.6101 z m -835.1931,-0.0136 c -1.1783,0 -2.3359,-0.5633 -3.05,-1.6101 -1.1481,-1.683 -0.7145,-3.9779 0.968,-5.1256 7.4223,-5.0634 15.0301,-10.0544 22.6127,-14.8342 1.7235,-1.0869 4.0009,-0.57 5.0869,1.1531 1.086,1.7235 0.57,4.0009 -1.1531,5.0873 -7.5074,4.7325 -15.04,9.674 -22.3893,14.6874 -0.6358,0.4341 -1.3593,0.6421 -2.0752,0.6421 z m 789.7932,-28.6143 c -0.6294,0 -1.2661,-0.1607 -1.8496,-0.4998 -7.6622,-4.4529 -15.5082,-8.8243 -23.3199,-12.9931 -1.7974,-0.959 -2.4773,-3.1931 -1.5182,-4.9905 0.959,-1.7969 3.1904,-2.4781 4.9905,-1.5178 7.89,4.2107 15.8143,8.6258 23.5541,13.1233 1.7614,1.0234 2.3593,3.2809 1.3354,5.0423 -0.6845,1.1782 -1.9208,1.8356 -3.1923,1.8356 z m -744.2662,-0.0852 c -1.2715,0 -2.5083,-0.6578 -3.1931,-1.8361 -1.023,-1.7618 -0.4246,-4.0189 1.3368,-5.0423 7.7626,-4.5087 15.7162,-8.9369 23.64,-13.162 1.7974,-0.9586 4.031,-0.2778 4.9901,1.5196 0.9581,1.7974 0.2782,4.0315 -1.5197,4.9901 -7.845,4.1828 -15.7198,8.5673 -23.4055,13.0314 -0.5825,0.3386 -1.2201,0.4993 -1.8486,0.4993 z m 696.9419,-25.1691 c -0.543,0 -1.0941,-0.1202 -1.6145,-0.3741 -7.9541,-3.8807 -16.0908,-7.6695 -24.1844,-11.2611 -1.8622,-0.8262 -2.7024,-3.0054 -1.8757,-4.8676 0.8267,-1.8618 3.0059,-2.701 4.8672,-1.8753 8.1755,3.6276 16.3943,7.4547 24.4275,11.3736 1.8307,0.8933 2.5907,3.1017 1.6974,4.9324 -0.6394,1.3103 -1.9515,2.0721 -3.3175,2.0721 z m -649.4317,-0.162 c -1.3666,0 -2.6794,-0.7627 -3.3184,-2.0739 -0.8923,-1.8307 -0.1315,-4.0387 1.7002,-4.9311 8.0732,-3.9342 16.3325,-7.7744 24.5482,-11.4124 1.8622,-0.8257 4.0414,0.0157 4.8657,1.8789 0.8248,1.8622 -0.016,4.041 -1.8788,4.8658 -8.1333,3.6024 -16.3105,7.4038 -24.3038,11.2989 -0.5203,0.2535 -1.071,0.3738 -1.6131,0.3738 z m 600.4334,-21.5789 c -0.4574,0 -0.9211,-0.0855 -1.3715,-0.2656 -8.2305,-3.299 -16.6428,-6.4943 -25.0029,-9.497 -1.9171,-0.6889 -2.9131,-2.801 -2.2242,-4.7181 0.6888,-1.9181 2.8005,-2.9117 4.7186,-2.2247 8.443,3.0328 16.9399,6.2602 25.2533,9.5925 1.891,0.7578 2.8094,2.905 2.0513,4.796 -0.5772,1.4407 -1.9622,2.3169 -3.4246,2.3169 z m -551.1772,-0.2364 c -1.4641,0 -2.8491,-0.8775 -3.4259,-2.3197 -0.7563,-1.8919 0.1639,-4.0382 2.0554,-4.7942 8.3516,-3.3395 16.8743,-6.5677 25.3307,-9.5956 1.9158,-0.6844 4.0288,0.3116 4.7159,2.2296 0.6865,1.9176 -0.3116,4.0293 -2.2296,4.7159 -8.3723,2.9973 -16.8099,6.1931 -25.0782,9.4997 -0.4493,0.1792 -0.9126,0.2643 -1.3683,0.2643 z m 500.5904,-17.9292 c -0.371,0 -0.7473,-0.0563 -1.1201,-0.1747 -8.4547,-2.6925 -17.0769,-5.2647 -25.6279,-7.6465 -1.9622,-0.5471 -3.1104,-2.5808 -2.5637,-4.543 0.5475,-1.9626 2.58,-3.108 4.543,-2.5637 8.6375,2.4061 17.347,5.0045 25.8872,7.7239 1.9406,0.6182 3.0131,2.6925 2.3954,4.6339 -0.4999,1.5688 -1.9506,2.5701 -3.5139,2.5701 z m -449.8419,-0.2391 c -1.5646,0 -3.0166,-1.0036 -3.515,-2.574 -0.616,-1.9419 0.4592,-4.0153 2.4006,-4.6312 8.5475,-2.7109 17.2598,-5.3003 25.895,-7.696 1.9644,-0.5434 3.9954,0.6051 4.5402,2.5682 0.5444,1.9631 -0.6051,3.9955 -2.5681,4.5403 -8.5493,2.3719 -17.1746,4.9356 -25.6365,7.619 -0.371,0.1179 -0.747,0.1737 -1.1162,0.1737 z m 398.0656,-14.1854 c -0.2845,0 -0.5736,-0.0333 -0.8627,-0.1027 -8.6259,-2.0671 -17.4127,-4.004 -26.1169,-5.7568 -1.9963,-0.4021 -3.2894,-2.3471 -2.887,-4.344 0.4016,-1.9982 2.3503,-3.2917 4.344,-2.8878 8.7915,1.7708 17.6667,3.7271 26.3799,5.8149 1.9811,0.475 3.202,2.4655 2.7267,4.4466 -0.4053,1.6921 -1.9172,2.8298 -3.584,2.8298 z m -346.273,-0.1841 c -1.6682,0 -3.1805,-1.1396 -3.5845,-2.8334 -0.4728,-1.9815 0.7501,-3.9712 2.7317,-4.4435 8.7131,-2.0783 17.5906,-4.0252 26.3861,-5.7874 1.9963,-0.3962 3.9409,0.8946 4.3412,2.8924 0.3999,1.9973 -0.895,3.941 -2.8923,4.3408 -8.7081,1.7447 -17.4974,3.6722 -26.1232,5.7294 -0.2878,0.0688 -0.5758,0.1017 -0.859,0.1017 z m 293.5854,-10.4295 c -0.1981,0 -0.3989,-0.0158 -0.6006,-0.0491 -8.751,-1.4331 -17.6559,-2.7267 -26.4663,-3.8438 -2.0208,-0.2562 -3.4515,-2.1022 -3.1958,-4.1229 0.2574,-2.0207 2.1053,-3.4489 4.1233,-3.1954 8.8987,1.1283 17.8927,2.4345 26.7311,3.8824 2.0099,0.3291 3.3732,2.2256 3.0436,4.2359 -0.2963,1.8088 -1.8604,3.0929 -3.6353,3.0929 z m -240.8857,-0.1274 c -1.7762,0 -3.3413,-1.2864 -3.6362,-3.0963 -0.3268,-2.0108 1.0375,-3.9059 3.0482,-4.2328 8.8401,-1.439 17.8356,-2.7357 26.7365,-3.8541 2.0225,-0.2535 3.8657,1.1783 4.1193,3.1999 0.2539,2.0211 -1.1787,3.8654 -3.1995,4.1193 -8.8131,1.1076 -17.7189,2.3912 -26.4712,3.8158 -0.2009,0.0324 -0.4004,0.0482 -0.5971,0.0482 z m 187.566,-6.6325 c -0.1108,0 -0.2234,-0.005 -0.3359,-0.0153 -8.8302,-0.7965 -17.8063,-1.4435 -26.677,-1.9234 -2.0342,-0.1099 -3.5939,-1.8483 -3.484,-3.8824 0.1099,-2.0347 1.8677,-3.5934 3.8821,-3.4836 8.959,0.4849 18.0232,1.1382 26.9417,1.9424 2.0288,0.1828 3.5255,1.9761 3.3418,4.0049 -0.1721,1.9161 -1.7814,3.3574 -3.6687,3.3574 z m -134.2378,-0.0712 c -1.8892,0 -3.4988,-1.4435 -3.6694,-3.3611 -0.181,-2.0292 1.317,-3.8208 3.3458,-4.0018 8.918,-0.7951 17.9827,-1.439 26.9426,-1.9135 2.0463,-0.1063 3.7708,1.4538 3.8783,3.4876 0.1082,2.0342 -1.4537,3.7708 -3.4875,3.8788 -8.8721,0.4701 -17.8481,1.1076 -26.6779,1.8951 -0.1117,0.01 -0.2224,0.0149 -0.3319,0.0149 z m 80.5606,-2.8329 c -0.023,0 -0.046,-4e-4 -0.069,-9e-4 -8.8555,-0.1617 -17.8942,-0.1675 -26.7527,-0.0144 -0.022,0 -0.043,4e-4 -0.065,4e-4 -2.0077,0 -3.652,-1.6096 -3.6866,-3.6249 -0.035,-2.0365 1.588,-3.7163 3.6245,-3.7514 8.9446,-0.154 18.071,-0.1477 27.0146,0.0149 2.0369,0.0374 3.6578,1.7186 3.62,3.7555 -0.037,2.0134 -1.6804,3.6208 -3.6857,3.6208 z"
         class="st2"
         inkscape:connector-curvature="0"
         style="fill:#ffffff" /><path
         id="path4835"
         d="m 760.1927,1376.8453 c -1.2639,0 -2.4948,-0.6501 -3.1824,-1.818 -2.253,-3.828 -4.511,-7.7451 -6.7109,-11.6425 -1.0013,-1.7739 -0.3751,-4.0234 1.3989,-5.0248 1.7758,-1.0022 4.0243,-0.3745 5.0251,1.3994 2.1779,3.8586 4.4133,7.7361 6.6443,11.5254 1.0333,1.7559 0.448,4.0161 -1.3075,5.0499 -0.5874,0.346 -1.2317,0.5106 -1.8675,0.5106 z"
         class="st2"
         inkscape:connector-curvature="0"
         style="fill:#ffffff" /></g><g
       transform="matrix(0.6,0,0,0.6,0,720.00001)"
       id="g4837"><path
         id="path4839"
         d="m 1319.8018,214.0756 140.4928,0 c 10.8326,0 19.6143,8.7816 19.6143,19.6143 l 0,202.5286 c 0,10.8327 -8.7816,19.6143 -19.6143,19.6143 l -140.4928,0 c -10.8326,0 -19.6143,-8.7816 -19.6143,-19.6143 l 0,-202.5287 c 0,-10.8326 8.7816,-19.6142 19.6143,-19.6142 z"
         class="st3"
         inkscape:connector-curvature="0"
         style="fill:#46abd3" /><path
         id="path4841"
         d="m 1311.5912,214.0756 140.4928,0 c 10.8326,0 19.6143,8.7816 19.6143,19.6143 l 0,202.5286 c 0,10.8327 -8.7816,19.6143 -19.6143,19.6143 l -140.4928,0 c -10.8326,0 -19.6143,-8.7816 -19.6143,-19.6143 l 0,-202.5287 c 0,-10.8326 8.7816,-19.6142 19.6143,-19.6142 z"
         class="st4"
         inkscape:connector-curvature="0"
         style="fill:#fffbdf" /><path
         id="path4843"
         d="m 1298.8191,214.0756 140.4928,0 c 10.8326,0 19.6143,8.7816 19.6143,19.6143 l 0,202.5286 c 0,10.8327 -8.7816,19.6143 -19.6143,19.6143 l -140.4928,0 c -10.8326,0 -19.6143,-8.7816 -19.6143,-19.6143 l 0,-202.5287 c 0,-10.8326 8.7817,-19.6142 19.6143,-19.6142 z"
         class="st5"
         inkscape:connector-curvature="0"
         style="fill:#5abfe8" /><g
         id="g4845"><path
           id="path4847"
           d="m 1369.0656,410.022 c -15.5118,0 -27.6631,-22.2768 -27.6631,-50.7155 0,-28.4387 12.1512,-50.7155 27.6631,-50.7155 15.5117,0 27.663,22.2768 27.663,50.7155 0,28.4387 -12.1513,50.7155 -27.663,50.7155 z m 0,-96.8206 c -12.4957,0 -23.0526,21.1133 -23.0526,46.105 0,24.9917 10.5569,46.105 23.0526,46.105 12.4956,0 23.0525,-21.1133 23.0525,-46.105 0,-24.9917 -10.5569,-46.105 -23.0525,-46.105 z"
           class="st3"
           inkscape:connector-curvature="0"
           style="fill:#46abd3" /><g
           id="g4849"><path
             id="path4851"
             d="m 1396.6429,395.6524 c -12.1967,0 -28.2838,-5.4533 -43.7327,-15.6779 -17.4182,-11.529 -29.4258,-26.1624 -31.3361,-38.1906 -0.7668,-4.8244 0.1868,-9.0859 2.7577,-12.3241 l 0,0 c 9.0841,-11.4398 35.8286,-7.4065 60.8888,9.1787 17.4186,11.529 29.4258,26.1624 31.3365,38.1906 0.7664,4.8244 -0.1873,9.0859 -2.7582,12.3241 -3.4838,4.3876 -9.5675,6.4992 -17.156,6.4992 z m -68.7,-63.3255 c -1.7708,2.2305 -2.3818,5.1688 -1.8154,8.7339 1.6885,10.6294 13.2003,24.3947 29.3276,35.0686 22.3141,14.7689 47.3788,19.4204 54.733,10.1566 1.7712,-2.2305 2.3818,-5.1688 1.8154,-8.7339 -1.6885,-10.6294 -13.2003,-24.3947 -29.3276,-35.0686 -22.3141,-14.7689 -47.3778,-19.4204 -54.733,-10.1566 l 0,0 z"
             class="st3"
             inkscape:connector-curvature="0"
             style="fill:#46abd3" /><path
             id="path4853"
             d="m 1341.4875,395.6524 c -7.5902,0 -13.6711,-2.1112 -17.1556,-6.4993 -2.5709,-3.2382 -3.5245,-7.4997 -2.7577,-12.3241 1.9103,-12.0283 13.9178,-26.6617 31.3361,-38.1906 25.0588,-16.5865 51.8065,-20.6194 60.8888,-9.1787 l 0,0 c 2.5709,3.2382 3.5245,7.4997 2.7582,12.3241 -1.9108,12.0283 -13.918,26.6617 -31.3365,38.1906 -15.4471,10.2238 -31.5366,15.678 -43.7333,15.678 z m 55.3711,-68.1013 c -11.2115,0 -26.8882,5.325 -41.4036,14.9323 -16.1273,10.674 -27.6392,24.4393 -29.3276,35.0686 -0.5664,3.565 0.045,6.5034 1.8154,8.7339 7.3552,9.2651 32.4198,4.6118 54.733,-10.1566 16.1273,-10.674 27.6392,-24.4393 29.3276,-35.0686 0.5664,-3.565 -0.044,-6.5033 -1.8154,-8.7339 -2.5698,-3.2376 -7.3064,-4.7757 -13.3294,-4.7757 z"
             class="st3"
             inkscape:connector-curvature="0"
             style="fill:#46abd3" /></g></g><g
         id="g4855"><path
           id="path4857"
           d="m 1329.4896,260.3661 -13.0308,0 c 0.083,1.2084 0.636,2.1823 1.6566,2.9218 1.0206,0.7394 2.1874,1.1091 3.5001,1.1091 2.0823,0 3.6661,-0.6564 4.7494,-1.9687 l 1.9996,2.1874 c -1.7917,1.8543 -4.1244,2.7811 -6.9994,2.7811 -2.3334,0 -4.3175,-0.7757 -5.9525,-2.328 -1.6356,-1.5515 -2.4531,-3.6349 -2.4531,-6.2496 0,-2.6143 0.8329,-4.6923 2.4995,-6.2341 1.6666,-1.5414 3.6299,-2.3121 5.8906,-2.3121 2.26,0 4.1816,0.6822 5.7655,2.0467 1.5824,1.3645 2.3744,3.2447 2.3744,5.6403 l 0,2.4061 z m -13.0307,-2.7499 9.5315,0 c 0,-1.3954 -0.4381,-2.4686 -1.3127,-3.2189 -0.8746,-0.7498 -1.9532,-1.1246 -3.2344,-1.1246 -1.281,0 -2.4323,0.3906 -3.4529,1.1717 -1.0208,0.7812 -1.5315,1.8386 -1.5315,3.1718 z"
           class="st4"
           inkscape:connector-curvature="0"
           style="fill:#fffbdf" /><path
           id="path4859"
           d="m 1333.0524,259.4598 0,-3.2811 10.3743,0 0,3.2811 -10.3743,0 z"
           class="st4"
           inkscape:connector-curvature="0"
           style="fill:#fffbdf" /><path
           id="path4861"
           d="m 1357.1125,250.273 c 2.2291,0 4.1353,0.7707 5.7184,2.3121 1.5833,1.5418 2.3751,3.5936 2.3751,6.1561 0,2.5621 -0.7865,4.6455 -2.3596,6.2496 -1.5731,1.6044 -3.4059,2.406 -5.4998,2.406 -2.093,0 -3.9738,-0.9164 -5.6395,-2.7498 l 0,2.4999 -3.5001,0 0,-23.186 3.5001,0 0,9.468 c 1.3746,-2.104 3.1764,-3.1559 5.4054,-3.1559 z m -5.468,8.593 c 0,1.5835 0.4791,2.8804 1.4371,3.8907 0.9581,1.0106 2.1248,1.5152 3.5001,1.5152 1.3745,0 2.5721,-0.4999 3.5936,-1.4997 1.0199,-0.9998 1.5306,-2.2967 1.5306,-3.8903 0,-1.594 -0.5,-2.9164 -1.4998,-3.9687 -0.9998,-1.0516 -2.1982,-1.5781 -3.5936,-1.5781 -1.3961,0 -2.5729,0.5266 -3.531,1.5781 -0.9578,1.0523 -1.437,2.37 -1.437,3.9528 z"
           class="st4"
           inkscape:connector-curvature="0"
           style="fill:#fffbdf" /><path
           id="path4863"
           d="m 1383.1115,264.9128 c -1.6666,1.6562 -3.7496,2.484 -6.2499,2.484 -2.4996,0 -4.5826,-0.8279 -6.2493,-2.484 -1.6674,-1.6562 -2.5002,-3.6821 -2.5002,-6.0781 0,-2.3952 0.8329,-4.4215 2.5002,-6.0777 1.6666,-1.6562 3.7496,-2.4841 6.2493,-2.4841 2.5002,0 4.5833,0.8279 6.2499,2.4841 1.6666,1.6562 2.4995,3.6824 2.4995,6.0777 0,2.396 -0.8329,4.4219 -2.4995,6.0781 z m -10.0151,-2.1561 c 0.9889,1.0106 2.2445,1.5152 3.7651,1.5152 1.5205,0 2.7761,-0.5045 3.7659,-1.5152 0.989,-1.0102 1.4843,-2.3176 1.4843,-3.922 0,-1.6036 -0.4952,-2.9109 -1.4843,-3.9216 -0.9897,-1.0102 -2.2454,-1.5155 -3.7659,-1.5155 -1.5206,0 -2.7762,0.5053 -3.7651,1.5155 -0.9897,1.0106 -1.4843,2.3179 -1.4843,3.9216 10e-5,1.6044 0.4946,2.9117 1.4843,3.922 z"
           class="st4"
           inkscape:connector-curvature="0"
           style="fill:#fffbdf" /><path
           id="path4865"
           d="m 1403.4855,264.9128 c -1.6666,1.6562 -3.7496,2.484 -6.25,2.484 -2.4995,0 -4.5825,-0.8279 -6.2491,-2.484 -1.6674,-1.6562 -2.5004,-3.6821 -2.5004,-6.0781 0,-2.3952 0.833,-4.4215 2.5004,-6.0777 1.6666,-1.6562 3.7496,-2.4841 6.2491,-2.4841 2.5004,0 4.5834,0.8279 6.25,2.4841 1.6666,1.6562 2.4995,3.6824 2.4995,6.0777 0,2.396 -0.8329,4.4219 -2.4995,6.0781 z m -10.0152,-2.1561 c 0.989,1.0106 2.2446,1.5152 3.7651,1.5152 1.5206,0 2.7761,-0.5045 3.7659,-1.5152 0.989,-1.0102 1.4843,-2.3176 1.4843,-3.922 0,-1.6036 -0.4952,-2.9109 -1.4843,-3.9216 -0.9897,-1.0102 -2.2452,-1.5155 -3.7659,-1.5155 -1.5205,0 -2.7761,0.5053 -3.7651,1.5155 -0.9897,1.0106 -1.4843,2.3179 -1.4843,3.9216 10e-5,1.6044 0.4946,2.9117 1.4843,3.922 z"
           class="st4"
           inkscape:connector-curvature="0"
           style="fill:#fffbdf" /><path
           id="path4867"
           d="m 1413.4534,267.1469 -3.5001,0 0,-23.186 3.5001,0 0,13.6241 6.7491,-7.062 4.4999,0 -6.3118,6.5934 6.7808,10.0305 -4.2504,0 -4.9373,-7.2807 -2.5304,2.5621 0,4.7186 z"
           class="st4"
           inkscape:connector-curvature="0"
           style="fill:#fffbdf" /></g><polygon
         id="polygon4869"
         points="1424.2592,463.131 1409.6625,471.3416 1409.6625,455.8327 1437.9435,455.8327 1437.9435,471.3416 "
         class="st6"
         style="fill:#ed655f" /></g><g
       transform="matrix(0.6,0,0,0.6,0,720.00001)"
       id="g4871"><path
         id="path4873"
         d="m 799.2017,676.9438 c -8.6484,-26.2449 -23.3915,-50.9202 -44.2658,-71.7944 -40.6919,-40.692 -95.8118,-58.1475 -148.8922,-52.3928 -5.7547,53.0804 11.7008,108.2003 52.3928,148.8922 20.8743,20.8743 45.5496,35.6174 71.7944,44.2658 l 68.9708,-68.9708 z"
         class="st7"
         inkscape:connector-curvature="0"
         style="fill:#b6e4f2" /><path
         id="path4875"
         d="m 615.8439,634.7014 72.1445,-72.1445 c -26.3329,-9.5089 -54.4109,-12.7853 -81.9448,-9.8002 -2.985,27.5338 0.2914,55.6118 9.8003,81.9447 z"
         class="st6"
         inkscape:connector-curvature="0"
         style="fill:#ed655f" /><path
         id="path4877"
         d="m 743.1995,732.946 1.5214,1.5214 c 3.481,3.481 9.1248,3.481 12.6058,0 l 30.4278,-30.4278 c 3.481,-3.481 3.481,-9.1248 0,-12.6058 l -1.5214,-1.5214 -43.0336,43.0336 z"
         class="st8"
         inkscape:connector-curvature="0"
         style="fill:#513146" /><g
         id="g4879"><path
           id="path4881"
           d="m 775.1486,721.8616 c -1.4296,11.3973 2.2206,23.3104 10.972,32.0617 8.7512,8.7512 20.6643,12.4015 32.0616,10.9719 1.4296,-11.3973 -2.2208,-23.3105 -10.9719,-32.0616 -8.7513,-8.7514 -20.6645,-12.4017 -32.0617,-10.972 z"
           class="st9"
           inkscape:connector-curvature="0"
           style="fill:#ffca68" /><path
           id="path4883"
           d="m 775.1486,721.8616 c -0.8022,6.676 1.3749,13.6702 6.5319,18.8272 5.157,5.157 12.1512,7.334 18.8272,6.5319 0.8021,-6.676 -1.3749,-13.6703 -6.5319,-18.8272 -5.157,-5.157 -12.1513,-7.3341 -18.8272,-6.5319 z"
           class="st6"
           inkscape:connector-curvature="0"
           style="fill:#ed655f" /></g><g
         id="g4885"><path
           id="path4887"
           d="m 730.3478,745.7977 -0.1169,0.117 c -22.3273,-7.3574 -43.509,-19.143 -62.1906,-35.345 -5.1287,20.4764 1.4301,43.0112 18.743,57.415 17.9064,14.8975 42.2692,16.8912 61.8225,7.0351 -9.3242,-7.9051 -15.4505,-18.1945 -18.258,-29.2221 z"
           class="st10"
           inkscape:connector-curvature="0"
           style="fill:#fffdf3" /><path
           id="path4889"
           d="m 763.8567,614.7533 c 16.202,18.6815 27.9875,39.8632 35.345,62.1906 l -0.117,0.1169 c 11.0277,2.8074 21.3171,8.9338 29.2222,18.2581 9.8561,-19.5533 7.8624,-43.9161 -7.0351,-61.8225 -14.4039,-17.3131 -36.9387,-23.8718 -57.4151,-18.7431 z"
           class="st10"
           inkscape:connector-curvature="0"
           style="fill:#fffdf3" /></g><g
         id="g4891"><circle
           id="ellipse4893"
           cy="636.44647"
           cx="689.73352"
           class="st8"
           transform="matrix(0.7071,-0.7071,0.7071,0.7071,-248.0174,674.1261)"
           r="26.7409"
           style="fill:#513146" /><circle
           id="ellipse4895"
           cy="636.44647"
           cx="689.73352"
           class="st10"
           transform="matrix(0.7071,-0.7071,0.7071,0.7071,-248.0174,674.1261)"
           r="16.2771"
           style="fill:#fffdf3" /></g></g><g
       transform="matrix(0.6,0,0,0.6,0,720.00001)"
       id="g4897"><path
         id="path4899"
         d="m 1903.4669,308.1299 -66.3912,0 c -7.6389,0 -13.8315,6.1925 -13.8315,13.8315 0,7.6389 6.1926,13.8315 13.8315,13.8315 l 66.3912,0 c 7.639,0 13.8315,-6.1926 13.8315,-13.8315 1e-4,-7.639 -6.1924,-13.8315 -13.8315,-13.8315 z"
         class="st7"
         inkscape:connector-curvature="0"
         style="fill:#b6e4f2" /><rect
         id="rect4901"
         height="92.210098"
         width="49.7934"
         class="st7"
         y="327.49399"
         x="1845.3746"
         style="fill:#b6e4f2" /><circle
         id="circle4903"
         r="67.313301"
         cy="439.9902"
         cx="1870.2714"
         class="st7"
         style="fill:#b6e4f2" /><path
         id="path4905"
         d="m 1867.0439,353.7738 -12.9094,0 c -2.0369,0 -3.6884,-1.6515 -3.6884,-3.6884 0,-2.0369 1.6515,-3.6884 3.6884,-3.6884 l 12.9094,0 c 2.037,0 3.6885,1.6515 3.6885,3.6884 0,2.0369 -1.6515,3.6884 -3.6885,3.6884 z"
         class="st2"
         inkscape:connector-curvature="0"
         style="fill:#ffffff" /><path
         id="path4907"
         d="m 1867.505,373.599 -12.9094,0 c -2.0369,0 -3.6884,-1.6515 -3.6884,-3.6884 0,-2.0369 1.6515,-3.6884 3.6884,-3.6884 l 12.9094,0 c 2.037,0 3.6885,1.6515 3.6885,3.6884 0,2.0369 -1.6515,3.6884 -3.6885,3.6884 z"
         class="st2"
         inkscape:connector-curvature="0"
         style="fill:#ffffff" /><path
         id="path4909"
         d="m 1867.9661,393.4242 -12.9094,0 c -2.0369,0 -3.6884,-1.6515 -3.6884,-3.6884 0,-2.0369 1.6515,-3.6884 3.6884,-3.6884 l 12.9094,0 c 2.0369,0 3.6885,1.6515 3.6885,3.6884 0,2.0369 -1.6517,3.6884 -3.6885,3.6884 z"
         class="st2"
         inkscape:connector-curvature="0"
         style="fill:#ffffff" /><path
         id="path4911"
         d="m 1868.4271,413.2493 -12.9094,0 c -2.0369,0 -3.6884,-1.6515 -3.6884,-3.6884 0,-2.0369 1.6515,-3.6884 3.6884,-3.6884 l 12.9094,0 c 2.0369,0 3.6884,1.6515 3.6884,3.6884 0,2.0369 -1.6515,3.6884 -3.6884,3.6884 z"
         class="st2"
         inkscape:connector-curvature="0"
         style="fill:#ffffff" /></g><g
       transform="matrix(0.6,0,0,0.6,0,720.00001)"
       id="g4913"><path
         id="path4915"
         d="m 1618.0804,1513.7566 0,-10.1942 38.1068,-17.6378 0,9.223 -28.4806,12.8641 0,0.8905 28.4806,13.1885 0,9.223 -38.1068,-17.5571 z"
         class="st1"
         inkscape:connector-curvature="0"
         style="fill:#edbaae" /><path
         id="path4917"
         d="m 1693.1827,1475.1641 8.0889,0 -35.0321,75.0829 -8.0922,0 35.0354,-75.0829 z"
         class="st1"
         inkscape:connector-curvature="0"
         style="fill:#edbaae" /><path
         id="path4919"
         d="m 1741.1772,1503.5624 0,10.1942 -38.1069,17.5571 0,-9.223 28.4806,-13.1885 0,-0.8905 -28.4806,-12.8641 0,-9.223 38.1069,17.6378 z"
         class="st1"
         inkscape:connector-curvature="0"
         style="fill:#edbaae" /></g><g
       transform="matrix(0.6,0,0,0.6,0,720.00001)"
       id="g4921"><g
         id="g4923"><path
           id="path4925"
           d="m 2144.8633,1155.4575 43.7676,25.2692 c 3.626,2.0934 4.8682,6.7297 2.7749,10.3555 l -53.4866,92.6414 c -2.0933,3.6259 -6.7297,4.8682 -10.3555,2.7748 l -43.7676,-25.2693 c -3.6257,-2.0933 -4.8682,-6.7296 -2.7749,-10.3555 l 53.4866,-92.6414 c 2.0935,-3.6258 6.7297,-4.8681 10.3555,-2.7747 z"
           class="st11"
           inkscape:connector-curvature="0"
           style="fill:#858e95" /><circle
           id="ellipse4927"
           cy="1223.531"
           cx="2134.7395"
           class="st12"
           transform="matrix(0.5,-0.866,0.866,0.5,7.7608,2460.5042)"
           r="24.426901"
           style="fill:#c3e9fc" /><path
           id="path4929"
           d="m 2146.2437,1138.7474 56.1685,32.4288 c 3.0215,1.7444 6.885,0.7092 8.6296,-2.3124 l 0,0 c 1.7444,-3.0215 0.7092,-6.8851 -2.3123,-8.6295 l -56.1685,-32.4288 c -3.0215,-1.7445 -6.885,-0.7092 -8.6296,2.3123 l 0,0 c -1.7444,3.0215 -0.7092,6.8851 2.3123,8.6296 z"
           class="st13"
           inkscape:connector-curvature="0"
           style="fill:#493848" /><rect
           id="rect4931"
           height="15.1615"
           width="46.3269"
           class="st14"
           transform="matrix(-0.866,-0.5,0.5,-0.866,3469.5146,3252.7075)"
           y="1153.9462"
           x="2147.374"
           style="fill:#9dc6d6" /><polygon
           id="polygon4933"
           points="2084.9094,1283.2694 2107.9194,1296.5542 2126.8342,1286.0771 2084.5256,1261.6503 "
           class="st13"
           style="fill:#493848" /></g><path
         id="path4935"
         d="m 2158.4521,1400.9384 c -2.9893,0 -5.937,-1.3804 -7.8303,-3.9823 -3.1436,-4.3204 -2.1897,-10.3707 2.1301,-13.5146 22.2937,-16.222 35.6023,-42.3423 35.6023,-69.8717 0,-38.0404 -24.3809,-71.182 -60.6675,-82.4685 -5.1016,-1.5867 -7.9517,-7.0089 -6.3645,-12.1105 1.5862,-5.1011 7.0088,-7.9521 12.1104,-6.3645 21.0706,6.5535 39.988,19.9413 53.2668,37.6978 13.7405,18.3729 21.0029,40.243 21.0029,63.2457 0,33.6965 -16.2861,65.6656 -43.5659,85.5165 -1.7184,1.2499 -3.7104,1.8521 -5.6843,1.8521 z"
         class="st13"
         inkscape:connector-curvature="0"
         style="fill:#493848" /><path
         id="path4937"
         d="m 2025.5912,1379.309 144.6014,0 0,18.3297 -144.6014,0 c -5.0615,0 -9.1648,-4.1031 -9.1648,-9.1648 l 0,0 c 0,-5.0617 4.1033,-9.1649 9.1648,-9.1649 z"
         class="st11"
         inkscape:connector-curvature="0"
         style="fill:#858e95" /><path
         id="path4939"
         d="m 2157.4636,1365.0525 0,0 c 11.5293,0 20.8755,9.3463 20.8755,20.8755 l 0,45.3153 -41.751,0 0,-45.3153 c 0,-11.5292 9.3462,-20.8755 20.8755,-20.8755 z"
         class="st15"
         inkscape:connector-curvature="0"
         style="fill:#b7c5ce" /><path
         id="path4941"
         d="m 2207.3613,1415.9685 -202.6456,0 c -8.7173,0 -15.7839,7.0667 -15.7839,15.7838 l 0,10e-5 c 0,8.7173 7.0667,15.7839 15.7839,15.7839 l 202.6456,0 c 8.7173,0 15.7839,-7.0667 15.7839,-15.7839 l 0,-10e-5 c 1e-4,-8.7171 -7.0666,-15.7838 -15.7839,-15.7838 z"
         class="st16"
         inkscape:connector-curvature="0"
         style="fill:#8795a0" /><path
         id="path4943"
         d="m 2207.3613,1415.9685 -26.4763,0 c 8.7173,0 15.7839,7.0667 15.7839,15.7838 l 0,10e-5 c 0,8.7173 -7.0667,15.7839 -15.7839,15.7839 l 26.4763,0 c 8.7173,0 15.7839,-7.0667 15.7839,-15.7839 l 0,-10e-5 c 1e-4,-8.7171 -7.0666,-15.7838 -15.7839,-15.7838 z"
         class="st17"
         inkscape:connector-curvature="0"
         style="fill:#677782" /></g><g
       transform="matrix(0.6,0,0,0.6,10.07059,720.00001)"
       id="g4945"><path
         id="path4947"
         d="m 766.8697,932.392 -199.5462,0 C 554.4423,932.392 544,942.8343 544,955.7156 l 0,267.7892 c 0,12.8812 10.4424,23.3235 23.3235,23.3235 l 199.5461,0 c 12.8812,0 23.3236,-10.4423 23.3236,-23.3235 l 0,-267.7892 c 10e-5,-12.8813 -10.4423,-23.3236 -23.3235,-23.3236 z"
         class="st8"
         inkscape:connector-curvature="0"
         style="fill:#513146" /><path
         id="path4949"
         d="m 770.3251,1208.8195 c 1.4778,0 2.9209,0.1469 4.3192,0.4193 l 0,-239.2574 c -1.3983,0.2725 -2.8413,0.4193 -4.3192,0.4193 -12.4042,0 -22.4598,-10.0556 -22.4598,-22.4597 l -161.5374,0 c 0,12.4041 -10.0555,22.4597 -22.4597,22.4597 -1.478,0 -2.9209,-0.1469 -4.3192,-0.4193 l 0,239.2573 c 1.3983,-0.2725 2.8412,-0.4193 4.3192,-0.4193 12.4042,0 22.4597,10.0555 22.4597,22.4598 l 161.5374,0 c 0,-12.4042 10.0556,-22.4597 22.4598,-22.4597 z"
         class="st10"
         inkscape:connector-curvature="0"
         style="fill:#fffdf3" /><rect
         id="rect4951"
         height="14.6852"
         width="101.0688"
         class="st18"
         y="976.44757"
         x="616.56232"
         style="fill:#e0ded7" /><rect
         id="rect4953"
         height="6.9106998"
         width="145.9883"
         class="st18"
         y="1043.8268"
         x="594.10248"
         style="fill:#e0ded7" /><rect
         id="rect4955"
         height="6.9106998"
         width="145.9883"
         class="st18"
         y="1072.3334"
         x="594.10248"
         style="fill:#e0ded7" /><rect
         id="rect4957"
         height="6.9106998"
         width="145.9883"
         class="st18"
         y="1100.84"
         x="594.10248"
         style="fill:#e0ded7" /><rect
         id="rect4959"
         height="6.9106998"
         width="145.9883"
         class="st18"
         y="1129.3466"
         x="594.10248"
         style="fill:#e0ded7" /><rect
         id="rect4961"
         height="6.9106998"
         width="58.740898"
         class="st18"
         y="1174.2661"
         x="594.10248"
         style="fill:#e0ded7" /><g
         id="g4963"><polygon
           id="polygon4965"
           points="696.7646,1223.9366 696.7646,1179.5031 724.6761,1179.5031 724.6761,1223.9366 710.7203,1219.6426 "
           class="st19"
           style="fill:#477499" /><polygon
           id="polygon4967"
           points="716.088,1221.2942 716.088,1179.5031 705.3528,1179.5031 705.3528,1221.2942 710.7203,1219.6426 "
           class="st20"
           style="fill:#c65978" /><path
           id="path4969"
           d="m 743.5461,1175.9821 c 0,-2.344 -1.0696,-4.4381 -2.7473,-5.8213 -4.8237,-3.9758 -5.3673,-5.2268 -4.9861,-11.4681 l -0.008,0 c 0.1273,-2.0813 -0.5963,-4.2051 -2.1868,-5.7955 -1.6575,-1.6575 -3.8947,-2.382 -6.0591,-2.1737 -6.222,0.5995 -7.491,0.099 -11.6346,-4.5834 l -0.003,0.01 c -1.3817,-1.5618 -3.395,-2.5519 -5.6442,-2.5519 -2.3442,0 -4.4384,1.0697 -5.8215,2.7474 -3.9756,4.8236 -5.2267,5.3672 -11.4678,4.986 l 0.004,0.01 c -2.0814,-0.1273 -4.2052,0.5963 -5.7956,2.1868 -1.6575,1.6575 -2.382,3.8947 -2.1736,6.0591 0.5993,6.2219 0.0992,7.491 -4.5834,11.6346 l 0.008,0 c -1.5619,1.3817 -2.5519,3.395 -2.5519,5.6443 0,2.3444 1.0699,4.4387 2.748,5.8218 4.8229,3.9756 5.3666,5.2267 4.9854,11.4675 l 0.008,0 c -0.1274,2.0814 0.5963,4.2052 2.1868,5.7957 1.6577,1.6577 3.8953,2.3822 6.06,2.1735 6.2213,-0.5992 7.4904,-0.099 11.6337,4.5836 l 0.003,-0.01 c 1.3817,1.5618 3.3951,2.5519 5.6443,2.5519 2.3444,0 4.4387,-1.0699 5.8218,-2.7479 3.9755,-4.823 5.2266,-5.3667 11.4675,-4.9856 l -0.004,-0.01 c 2.0814,0.1274 4.2053,-0.5962 5.7956,-2.1865 1.6575,-1.6576 2.3821,-3.8947 2.1737,-6.0591 -0.5994,-6.222 -0.0992,-7.4911 4.5834,-11.6348 l -0.008,0 c 1.5617,-1.3819 2.5518,-3.3952 2.5518,-5.6444 z"
           class="st8"
           inkscape:connector-curvature="0"
           style="fill:#513146" /><circle
           id="circle4971"
           r="23.5935"
           cy="1176.4257"
           cx="710.72028"
           class="st9"
           style="fill:#ffca68" /></g></g><g
       transform="matrix(0.6,0,0,0.6,-10.070649,720.00001)"
       id="g4973"><path
         id="path4975"
         d="m 2133.7014,921.3268 c -3.0552,0 -5.5325,-2.4772 -5.5325,-5.5326 l 0,-37.8062 c 0,-3.0554 2.4773,-5.5326 5.5325,-5.5326 3.0554,0 5.5327,2.4772 5.5327,5.5326 l 0,37.8062 c 0,3.0553 -2.4773,5.5326 -5.5327,5.5326 z"
         class="st7"
         inkscape:connector-curvature="0"
         style="fill:#b6e4f2" /><path
         id="path4977"
         d="m 2070.5989,867.519 c -0.9382,0 -1.8892,-0.2391 -2.761,-0.742 -2.6465,-1.5277 -3.5522,-4.9117 -2.0251,-7.5578 L 2192.1407,640.413 c 1.5281,-2.6448 4.9104,-3.552 7.5576,-2.0252 2.6467,1.5276 3.5525,4.9117 2.0254,7.5578 l -126.3279,218.8062 c -1.0247,1.7748 -2.8843,2.7672 -4.7969,2.7672 z"
         class="st7"
         inkscape:connector-curvature="0"
         style="fill:#b6e4f2" /><circle
         id="ellipse4979"
         cy="758.1723"
         cx="2130.5403"
         class="st21"
         transform="matrix(0.5,-0.866,0.866,0.5,408.6737,2224.1882)"
         r="105.1195"
         style="fill:#5fd2c1" /><path
         id="path4981"
         d="m 2130.3364,883.6318 c -21.7314,0 -43.1741,-5.6982 -62.4985,-16.8549 -4.1484,-2.3944 -8.1917,-5.0446 -12.0168,-7.8757 -2.4565,-1.8177 -2.9736,-5.2823 -1.1563,-7.7384 1.8188,-2.4556 5.283,-2.973 7.7388,-1.1558 3.4902,2.5826 7.1794,5.0009 10.9661,7.1868 26.4502,15.2709 57.2639,19.3286 86.7649,11.4227 29.5,-7.9045 54.1572,-26.8246 69.4277,-53.2742 15.2705,-26.4496 19.3271,-57.2626 11.4226,-86.7635 -7.9045,-29.5009 -26.8247,-54.1577 -53.2739,-69.4282 -3.7874,-2.1868 -7.7278,-4.1738 -11.71,-5.9049 -2.8022,-1.2184 -4.0854,-4.4777 -2.8679,-7.28 1.2202,-2.8019 4.478,-4.0855 7.2805,-2.8676 4.3645,1.8978 8.6807,4.0743 12.8301,6.4695 29.0093,16.7487 49.76,43.7917 58.4292,76.1472 8.6699,32.356 4.2205,66.1508 -12.5276,95.1601 -16.7483,29.0092 -43.7917,49.7601 -76.1472,58.43 -10.8023,2.8943 -21.7703,4.3269 -32.6617,4.3269 z"
         class="st7"
         inkscape:connector-curvature="0"
         style="fill:#b6e4f2" /><path
         id="path4983"
         d="m 2039.5043,705.6125 c -5.0199,8.6946 -8.6545,17.8085 -10.976,27.0865 6.7017,5.5179 14.9313,8.9796 21.7715,14.3559 7.207,5.6646 13.0078,14.9437 10.2927,23.6988 -0.9702,3.1287 -2.9465,5.8832 -3.8159,9.0413 -0.8691,3.1583 -0.1636,7.2057 2.8125,8.574 4.0967,1.8834 8.1733,-2.5094 10.5632,-6.3331 4.5649,-7.3036 9.2024,-14.7759 11.1819,-23.1583 1.98,-8.3823 0.8633,-17.9888 -4.9963,-24.3017 -2.8345,-3.0539 -6.8616,-5.6264 -7.4063,-9.7574 -0.8186,-6.2075 6.4927,-9.9829 12.4751,-11.8314 10.863,-3.3567 21.7261,-6.7134 32.5894,-10.07 9.7739,-3.0201 20.7375,-7.0904 24.5459,-16.5851 2.79,-6.9568 0.7124,-15.1082 -3.4973,-21.3098 -3.1768,-4.6802 -7.0159,-8.5653 -11.3184,-11.7545 -33.8454,2.2297 -65.9897,20.7653 -84.222,52.3448 z"
         class="st22"
         inkscape:connector-curvature="0"
         style="fill:#3aa4b2" /><path
         id="path4985"
         d="m 2146.0703,802.2753 -31.9424,-18.4421 c -4.1899,-2.4189 -5.6255,-7.7765 -3.2065,-11.9663 l 0,0 c 2.4192,-4.1898 7.7766,-5.6254 11.9663,-3.2064 l 31.9426,18.442 c 4.1899,2.419 5.6255,7.7765 3.2063,11.9663 l 0,0 c -2.4189,4.1899 -7.7763,5.6255 -11.9663,3.2065 z"
         class="st22"
         inkscape:connector-curvature="0"
         style="fill:#3aa4b2" /><path
         id="path4987"
         d="m 2120.2915,757.5789 -8.0276,-4.6348 c -2.2053,-1.2731 -2.9607,-4.0929 -1.6875,-6.298 l 0,0 c 1.2729,-2.2052 4.0928,-2.9608 6.2979,-1.6876 l 8.0278,4.6348 c 2.2051,1.2731 2.9607,4.0929 1.6875,6.298 l 0,0 c -1.2732,2.2052 -4.093,2.9608 -6.2981,1.6876 z"
         class="st22"
         inkscape:connector-curvature="0"
         style="fill:#3aa4b2" /><path
         id="path4989"
         d="m 2195.5486,741.6426 c -4.4805,0.3746 -9.1853,1.2117 -12.6003,4.1362 -4.927,4.2191 -5.7593,11.751 -3.928,17.9739 1.8311,6.2227 5.8091,11.5417 9.3518,16.9753 3.5427,5.4336 6.804,11.4289 6.8828,17.915 0.1411,11.619 -10.0537,21.0234 -20.9167,25.1478 -10.863,4.1245 -22.7588,4.5668 -33.9736,7.6071 -11.2151,3.0403 -22.6482,9.8347 -25.8843,20.9948 -0.9045,3.1196 -1.0681,6.3765 -0.6475,9.5837 41.8125,6.7213 85.3091,-12.3865 107.7437,-51.2443 11.5393,-19.9865 15.762,-42.1862 13.512,-63.506 -12.2552,-5.2926 -27.1107,-6.6226 -39.5399,-5.5835 z"
         class="st22"
         inkscape:connector-curvature="0"
         style="fill:#3aa4b2" /><path
         id="path4991"
         d="m 2189.9497,926.8594 -113.4185,0 0,-3.9958 c 0,-10.0154 8.1191,-18.1346 18.1348,-18.1346 l 77.1489,0 c 10.0156,0 18.1348,8.1192 18.1348,18.1346 l 0,3.9958 z"
         class="st23"
         inkscape:connector-curvature="0"
         style="fill:#3c5f7c" /></g><g
       transform="matrix(0.6,0,0,0.6,0,720.00001)"
       id="g4993"><rect
         id="rect4995"
         height="58.451302"
         width="241.26711"
         class="st24"
         y="1549.5521"
         x="868.58337"
         style="fill:#b4cfd6" /><path
         id="path4997"
         d="m 1111.0941,1619.818 -217.0342,0 c -23.3056,0 -42.2657,-18.9607 -42.2657,-42.2657 0,-23.3049 18.9601,-42.2656 42.2657,-42.2656 l 217.0342,0 c 6.5249,0 11.8147,5.2891 11.8147,11.8146 0,6.5255 -5.2898,11.8147 -11.8147,11.8147 l -217.0342,0 c -10.2765,0 -18.6365,8.3606 -18.6365,18.6364 0,10.2759 8.36,18.6365 18.6365,18.6365 l 217.0342,0 c 6.5249,0 11.8147,5.2892 11.8147,11.8147 0,6.5255 -5.2898,11.8144 -11.8147,11.8144 z"
         class="st25"
         inkscape:connector-curvature="0"
         style="fill:#702a2a" /><rect
         id="rect4999"
         height="58.451302"
         width="241.26711"
         class="st26"
         y="1549.5521"
         x="806.40112"
         style="fill:#e8f4f7" /><path
         id="path5001"
         d="m 1045.1809,1619.818 -217.0342,0 c -23.3056,0 -42.2657,-18.9607 -42.2657,-42.2657 0,-23.3049 18.9601,-42.2656 42.2657,-42.2656 l 217.0342,0 c 6.5249,0 11.8147,5.2891 11.8147,11.8146 0,6.5255 -5.2898,11.8147 -11.8147,11.8147 l -217.0342,0 c -10.2764,0 -18.6365,8.3606 -18.6365,18.6364 0,10.2759 8.36,18.6365 18.6365,18.6365 l 217.0342,0 c 6.5249,0 11.8147,5.2892 11.8147,11.8147 0,6.5255 -5.2898,11.8144 -11.8147,11.8144 z"
         class="st27"
         inkscape:connector-curvature="0"
         style="fill:#9f5049" /><path
         id="path5003"
         d="m 1024.6608,1565.7195 -182.8158,0 c -1.7171,0 -3.1091,1.392 -3.1091,3.1091 0,1.7169 1.392,3.1091 3.1091,3.1091 l 182.8158,0 c 1.7172,0 3.1091,-1.3922 3.1091,-3.1091 0,-1.7171 -1.392,-3.1091 -3.1091,-3.1091 z"
         class="st28"
         inkscape:connector-curvature="0"
         style="fill:#cee4ea" /><path
         id="path5005"
         d="m 1101.1952,1565.7195 -43.5786,0 c -1.7172,0 -3.1091,1.392 -3.1091,3.1091 0,1.7169 1.392,3.1091 3.1091,3.1091 l 43.5786,0 c 1.7172,0 3.1091,-1.3922 3.1091,-3.1091 0,-1.7171 -1.3919,-3.1091 -3.1091,-3.1091 z"
         class="st29"
         inkscape:connector-curvature="0"
         style="fill:#99b8bf" /><path
         id="path5007"
         d="m 1101.1952,1579.551 -7.6167,0 c -1.7172,0 -3.1091,1.392 -3.1091,3.109 0,1.717 1.392,3.1091 3.1091,3.1091 l 7.6167,0 c 1.7172,0 3.1091,-1.3921 3.1091,-3.1091 0,-1.717 -1.3919,-3.109 -3.1091,-3.109 z"
         class="st29"
         inkscape:connector-curvature="0"
         style="fill:#99b8bf" /><path
         id="path5009"
         d="m 1082.7532,1579.551 -22.3704,0 c -1.7172,0 -3.1091,1.392 -3.1091,3.109 0,1.717 1.392,3.1091 3.1091,3.1091 l 22.3704,0 c 1.7172,0 3.1091,-1.3921 3.1091,-3.1091 0,-1.717 -1.392,-3.109 -3.1091,-3.109 z"
         class="st29"
         inkscape:connector-curvature="0"
         style="fill:#99b8bf" /><path
         id="path5011"
         d="m 1024.6608,1579.3995 -116.9026,0 c -1.7172,0 -3.1091,1.392 -3.1091,3.1091 0,1.717 1.392,3.1091 3.1091,3.1091 l 116.9026,0 c 1.7172,0 3.1091,-1.3921 3.1091,-3.1091 0,-1.7171 -1.392,-3.1091 -3.1091,-3.1091 z"
         class="st28"
         inkscape:connector-curvature="0"
         style="fill:#cee4ea" /></g><g
       transform="matrix(0.6,0,0,0.6,0,720.00001)"
       id="g5013"><g
         id="g5015"><path
           id="path5017"
           d="m 856.8827,1406.8127 0,-758.8887 c 0,-20.6251 16.72,-37.3451 37.3451,-37.3451 l 1011.5444,0 c 20.6251,0 37.3451,16.72 37.3451,37.3451 l 0,758.8888 c 0,20.6251 -16.72,37.3451 -37.3451,37.3451 l -1011.5444,0 c -20.6251,-10e-5 -37.3451,-16.72 -37.3451,-37.3452 z"
           class="st26"
           inkscape:connector-curvature="0"
           style="fill:#e8f4f7" /><path
           id="path5019"
           d="m 1905.7722,610.5789 -1011.5444,0 c -20.6251,0 -37.3451,16.7199 -37.3451,37.3451 l 0,684.6597 1086.2346,0 0,-684.6597 c 0,-20.6252 -16.72,-37.3451 -37.3451,-37.3451 z"
           class="st13"
           inkscape:connector-curvature="0"
           style="fill:#493848" /><rect
           id="rect5021"
           height="616.88531"
           width="981.11511"
           class="st5"
           y="663.13861"
           x="909.44238"
           style="fill:#5abfe8" /></g><polygon
         id="polygon5023"
         points="1508.8079,1593.5382 1291.1921,1593.5382 1313.0459,1475.5093 1318.8551,1444.1578 1481.1449,1444.1578 1486.9541,1475.5093 "
         class="st26"
         style="fill:#e8f4f7" /><path
         id="path5025"
         d="m 1536.4709,1619.3569 -272.9419,0 c -7.1296,0 -12.9093,-5.7797 -12.9093,-12.9094 l 0,0 c 0,-7.1296 5.7797,-12.9093 12.9093,-12.9093 l 272.9419,0 c 7.1296,0 12.9093,5.7797 12.9093,12.9093 l 0,0 c 0,7.1298 -5.7796,12.9094 -12.9093,12.9094 z"
         class="st26"
         inkscape:connector-curvature="0"
         style="fill:#e8f4f7" /><path
         id="path5027"
         d="m 1433.1957,1606.4475 c 0,-7.1295 -5.7798,-12.9093 -12.9094,-12.9093 l -156.7572,0 c -7.1295,0 -12.9093,5.7798 -12.9093,12.9093 0,7.1296 5.7798,12.9094 12.9093,12.9094 l 156.7572,0 c 7.1296,0 12.9094,-5.7798 12.9094,-12.9094 z"
         class="st2"
         inkscape:connector-curvature="0"
         style="fill:#ffffff" /><polygon
         id="polygon5029"
         points="1486.9541,1475.5093 1313.0459,1475.5093 1318.8551,1444.1578 1481.1449,1444.1578 "
         class="st28"
         style="fill:#cee4ea" /></g><g
       transform="matrix(0.6,0,0,0.6,0,720.00001)"
       id="g5031"><path
         id="path5033"
         d="m 1271.6235,1270.5242 c -11.1399,0 -22.1091,-3.3796 -31.3988,-9.8217 -12.2012,-8.4617 -20.4713,-21.4895 -22.9357,-36.1315 l -48.4487,-287.8423 c -5.0509,-30.0077 15.1805,-58.429 45.1887,-63.4795 30.0059,-5.05 58.429,15.1806 63.4795,45.1887 l 39.0751,232.1528 34.5571,-6.6953 c 29.8751,-5.7861 58.7848,13.7375 64.5732,43.6125 5.788,29.8741 -13.7379,58.7843 -43.6125,64.5732 l -89.998,17.4373 c -3.4784,0.6736 -6.9879,1.0058 -10.4799,1.0058 z"
         class="st30"
         inkscape:connector-curvature="0"
         style="fill:#3b1a37" /><path
         id="path5035"
         d="m 1429.8267,957.7244 -10e-5,0 c -3.0262,-3.6246 -2.5414,-9.0162 1.0833,-12.0426 l 191.0532,-159.5197 c 3.6246,-3.0264 9.0162,-2.5414 12.0426,1.0832 l 0,0 c 3.0264,3.6246 2.5414,9.0162 -1.0831,12.0426 l -191.0533,159.5197 c -3.6247,3.0264 -9.0164,2.5414 -12.0426,-1.0832 z"
         class="st31"
         inkscape:connector-curvature="0"
         style="fill:#8e4357" /><path
         id="path5037"
         d="m 1137.2383,823.0392 78.7748,0 c 12.3496,0 22.361,10.0114 22.361,22.361 l 0,48.9811 -123.4967,0 0,-48.9811 c -10e-5,-12.3497 10.0113,-22.361 22.3609,-22.361 z"
         class="st30"
         inkscape:connector-curvature="0"
         style="fill:#3b1a37" /><g
         id="g5039"><ellipse
           id="ellipse5041"
           ry="140.02541"
           rx="75.523003"
           cy="605.4325"
           cx="1044.5356"
           class="st31"
           transform="matrix(0.9736,-0.2282,0.2282,0.9736,-110.581,254.279)"
           style="fill:#8e4357" /><path
           id="path5043"
           d="m 1090.7014,732.1122 c -40.6101,9.5162 -87.8342,-43.8075 -105.4781,-119.1017 -14.2047,-60.6184 -4.9014,-116.9877 20.4548,-141.6284 -35.7551,15.3271 -51.2829,80.4016 -34.6737,151.281 17.6438,75.2943 64.8679,128.618 105.478,119.1017 7.9154,-1.8549 14.9908,-5.9691 21.1296,-11.9347 -2.227,0.9548 -4.5295,1.7241 -6.9106,2.2821 z"
           class="st32"
           inkscape:connector-curvature="0"
           style="fill:#af627a" /><circle
           id="circle5045"
           r="67.448196"
           cy="574.19287"
           cx="1288.7227"
           class="st33"
           style="fill:#773252" /><path
           id="path5047"
           d="m 1134.9219,914.2838 -10e-5,0 c -35.7291,0 -64.6932,-28.9642 -64.6932,-64.6932 l 0,-168.0506 129.3865,0 0,168.0505 c -10e-5,35.7291 -28.9642,64.6933 -64.6932,64.6933 z"
           class="st34"
           inkscape:connector-curvature="0"
           style="fill:#f2ae75" /><path
           id="path5049"
           d="m 1077.8282,691.9898 c 0,68.6622 53.9597,124.7198 121.7867,128.0849 l 0,-138.5347 -121.7867,0 0,10.4498 z"
           class="st35"
           inkscape:connector-curvature="0"
           style="fill:#c97d53" /><path
           id="path5051"
           d="m 1070.2285,567.0831 0,103.0574 c 0,70.8286 57.4178,128.2464 128.2465,128.2464 l 2e-4,0 c 70.8285,0 128.2465,-57.4179 128.2465,-128.2465 l 0,-103.0573 c 0,-45.3911 -36.7968,-82.1878 -82.1879,-82.1878 l -92.1174,0 c -45.3911,0 -82.1879,36.7967 -82.1879,82.1878 z"
           class="st34"
           inkscape:connector-curvature="0"
           style="fill:#f2ae75" /><circle
           id="circle5053"
           r="58.423401"
           cy="578.46771"
           cx="1069.7535"
           class="st31"
           style="fill:#8e4357" /><g
           id="g5055"><path
             id="path5057"
             d="m 1183.2755,707.6115 0,0.7012 c 0,24.3965 19.7772,44.1738 44.1738,44.1738 l 0,0 c 24.3965,0 44.1737,-19.7773 44.1737,-44.1738 l 0,-0.7012 -88.3475,0 z"
             class="st36"
             inkscape:connector-curvature="0"
             style="fill:#a02d24" /><path
             id="path5059"
             d="m 1191.4977,733.9642 c 8.0118,11.2086 21.1235,18.5222 35.9517,18.5222 8.5458,0 16.5198,-2.4337 23.2805,-6.6355 -3.231,-14.83 -16.4287,-25.9379 -32.2272,-25.9379 -11.1702,10e-5 -21.0366,5.5569 -27.005,14.0512 z"
             class="st37"
             inkscape:connector-curvature="0"
             style="fill:#ff6548" /><path
             id="path5061"
             d="m 1192.8855,707.6115 c 0.8328,7.2378 6.9729,12.8607 14.434,12.8607 l 39.1414,0 c 7.4611,0 13.6012,-5.6229 14.434,-12.8607 l -68.0094,0 z"
             class="st4"
             inkscape:connector-curvature="0"
             style="fill:#fffbdf" /></g><path
           id="path5063"
           d="m 1161.4381,643.541 0,0 c -8.4011,0 -15.2117,-6.8105 -15.2117,-15.2116 l 0,-13.0386 c 0,-8.4011 6.8105,-15.2116 15.2117,-15.2116 l 0,0 c 8.4011,0 15.2115,6.8105 15.2115,15.2116 l 0,13.0386 c 10e-5,8.4011 -6.8104,15.2116 -15.2115,15.2116 z"
           class="st38"
           inkscape:connector-curvature="0"
           style="fill:#3d253b" /><path
           id="path5065"
           d="m 1291.5605,643.541 0,0 c -8.4011,0 -15.2117,-6.8105 -15.2117,-15.2116 l 0,-13.0386 c 0,-8.4011 6.8105,-15.2116 15.2117,-15.2116 l 0,0 c 8.4011,0 15.2115,6.8105 15.2115,15.2116 l 0,13.0386 c 10e-5,8.4011 -6.8103,15.2116 -15.2115,15.2116 z"
           class="st38"
           inkscape:connector-curvature="0"
           style="fill:#3d253b" /><circle
           id="circle5067"
           r="44.6488"
           cy="636.89117"
           cx="1064.5287"
           class="st34"
           style="fill:#f2ae75" /><ellipse
           id="ellipse5069"
           ry="77.7481"
           rx="168.4585"
           cy="482.7103"
           cx="1211.9574"
           class="st31"
           transform="matrix(0.9962,-0.0868,0.0868,0.9962,-37.3388,107.0656)"
           style="fill:#8e4357" /><path
           id="path5071"
           d="m 1379.7795,468.082 c -0.8879,-10.1876 -6.0056,-19.5417 -14.5276,-27.7763 0.1851,0.8952 0.3495,1.7957 0.4675,2.7073 5.5179,42.5831 -64.8051,86.7956 -157.0707,98.7513 -66.8439,8.6616 -126.8568,-1.9871 -156.9563,-24.7026 22.1484,31.2858 89.4957,49.8603 167.0162,43.1031 92.6858,-8.0791 164.7996,-49.306 161.0709,-92.0828 z"
           class="st33"
           inkscape:connector-curvature="0"
           style="fill:#773252" /><ellipse
           id="ellipse5073"
           ry="61.748299"
           rx="93.572502"
           cy="456.396"
           cx="1094.4529"
           class="st31"
           transform="matrix(0.9094,-0.4159,0.4159,0.9094,-90.6705,496.4832)"
           style="fill:#8e4357" /><ellipse
           id="ellipse5075"
           ry="60.173901"
           rx="70.773102"
           cy="413.95941"
           cx="1288.6271"
           class="st31"
           transform="matrix(0.6046,-0.7965,0.7965,0.6046,179.8062,1190.1284)"
           style="fill:#8e4357" /><path
           id="path5077"
           d="m 1343.9181,371.2256 c 4.0084,19.2267 -0.8481,41.5224 -14.9598,60.1146 -23.6315,31.1343 -64.2479,40.0856 -90.7194,19.9933 -5.0555,-3.8372 -9.2225,-8.4606 -12.5027,-13.6398 2.7041,12.9703 9.4387,24.5453 20.1025,32.6393 26.4714,20.0923 67.0879,11.141 90.7192,-19.9933 19.1184,-25.1883 21.2556,-57.1745 7.3602,-79.1141 z"
           class="st33"
           inkscape:connector-curvature="0"
           style="fill:#773252" /><ellipse
           id="ellipse5079"
           ry="50.823601"
           rx="62.223301"
           cy="408.4223"
           cx="1177.1006"
           class="st31"
           transform="matrix(0.9917,-0.1285,0.1285,0.9917,-42.7249,154.6502)"
           style="fill:#8e4357" /><path
           id="path5081"
           d="m 1129.6316,496.402 c -46.9979,21.4914 -96.594,13.7719 -110.7762,-17.2419 -5.7167,-12.5016 -4.8027,-26.8797 1.399,-40.9981 -14.0048,18.859 -18.8278,39.8081 -10.8987,57.1476 14.1821,31.0138 63.7783,38.7333 110.7762,17.242 28.0532,-12.8283 48.8358,-33.1647 58.0192,-54.071 -11.0444,14.8725 -27.7977,28.4456 -48.5195,37.9214 z"
           class="st32"
           inkscape:connector-curvature="0"
           style="fill:#af627a" /></g><path
         id="path5083"
         d="m 1275.5889,1280.0239 -281.2142,0 0,-316.9119 c 0,-62.6437 50.7828,-113.4265 113.4265,-113.4265 l 54.3612,0 c 62.6437,0 113.4265,50.7828 113.4265,113.4265 l 0,316.9119 z"
         class="st39"
         inkscape:connector-curvature="0"
         style="fill:#594f59" /><path
         id="path5085"
         d="m 1162.1622,849.6855 -49.3853,0 c 55.1996,0 99.9478,44.748 99.9478,99.9477 l 0,330.3907 62.8641,0 0,-316.9119 c 10e-5,-62.6438 -50.7828,-113.4265 -113.4266,-113.4265 z"
         class="st4"
         inkscape:connector-curvature="0"
         style="fill:#fffbdf" /><path
         id="path5087"
         d="m 1060.2903,823.0392 78.7748,0 c 12.3496,0 22.361,10.0114 22.361,22.361 l 0,48.9811 -123.4967,0 0,-48.9811 c -10e-5,-12.3497 10.0113,-22.361 22.3609,-22.361 z"
         class="st39"
         inkscape:connector-curvature="0"
         style="fill:#594f59" /><path
         id="path5089"
         d="m 1193.7628,1191.6801 c -16.4706,0 -32.712,-7.3661 -43.5295,-21.2753 L 1000.6123,978.035 c -18.6822,-24.0203 -14.3553,-58.6368 9.6649,-77.319 24.0194,-18.6832 58.6373,-14.3549 77.3191,9.6649 l 117.9508,151.6508 116.4344,-78.8413 c 25.1971,-17.0587 59.4546,-10.4664 76.5161,14.7311 17.0615,25.1975 10.4664,59.4551 -14.7306,76.5166 l -159.149,107.7627 c -9.4419,6.3937 -20.1967,9.4793 -30.8552,9.4793 z"
         class="st13"
         inkscape:connector-curvature="0"
         style="fill:#493848" /><path
         id="path5091"
         d="m 1356.2075,1072.7856 c -14.219,0 -28.2544,-6.4893 -37.3905,-18.7759 -15.3401,-20.6304 -11.0518,-49.7902 9.5786,-65.1298 l 22.7994,-16.953 c 20.6299,-15.3397 49.7897,-11.0508 65.1289,9.5786 15.3401,20.6304 11.0518,49.7902 -9.5786,65.1298 l -22.7993,16.953 c -8.3429,6.2037 -18.0838,9.1973 -27.7385,9.1973 z"
         class="st4"
         inkscape:connector-curvature="0"
         style="fill:#fffbdf" /><path
         id="path5093"
         d="m 1375.1068,1052.8575 c -12.3572,0 -24.5668,-5.5839 -32.6002,-16.1959 -13.6165,-17.9874 -10.0731,-43.6079 7.9148,-57.2239 l 39.993,-30.2748 c 17.9869,-13.6179 43.6079,-10.0731 57.2239,7.9143 13.6169,17.9873 10.0736,43.6079 -7.9138,57.2239 l -39.993,30.2749 c -7.3758,5.5838 -16.0364,8.2815 -24.6247,8.2815 z"
         class="st34"
         inkscape:connector-curvature="0"
         style="fill:#f2ae75" /><ellipse
         id="ellipse5095"
         ry="56.0811"
         rx="79.604401"
         cy="964.36859"
         cx="1453.3339"
         class="st34"
         transform="matrix(0.9745,-0.2245,0.2245,0.9745,-179.3772,350.821)"
         style="fill:#f2ae75" /><ellipse
         id="ellipse5097"
         ry="56.0811"
         rx="79.604401"
         cy="1166.7131"
         cx="1461.8837"
         class="st34"
         transform="matrix(0.9108,-0.4129,0.4129,0.9108,-351.294,707.6814)"
         style="fill:#f2ae75" /><path
         id="path5099"
         d="m 1433.1211,960.8381 c -8.8851,0 -17.2368,-5.4596 -20.4968,-14.2812 -4.183,-11.319 1.6017,-23.8857 12.9202,-28.0688 l 87.3982,-32.2986 c 11.3218,-4.183 23.8866,1.6026 28.0687,12.9207 4.1831,11.319 -1.6022,23.8857 -12.9211,28.0688 l -87.3972,32.2991 c -2.4974,0.923 -5.0565,1.36 -7.572,1.36 z"
         class="st34"
         inkscape:connector-curvature="0"
         style="fill:#f2ae75" /><path
         id="path5101"
         d="m 1354.2119,1245.8304 c -22.9158,0 -42.8801,-16.9252 -46.063,-40.2654 -3.4734,-25.4722 14.36,-48.9376 39.8325,-52.411 l 20.8994,-2.8499 c 25.4758,-3.4669 48.9371,14.36 52.4115,39.833 3.4733,25.4722 -14.3601,48.9376 -39.8326,52.411 l -20.8994,2.8499 c -2.1333,0.2905 -4.254,0.4324 -6.3484,0.4324 z"
         class="st4"
         inkscape:connector-curvature="0"
         style="fill:#fffbdf" /><path
         id="path5103"
         d="m 1385.7073,1234.1691 c -19.1716,0 -36.2758,-13.5621 -40.0581,-33.0867 -4.2911,-22.1482 10.1849,-43.582 32.3335,-47.8727 l 37.8668,-7.3363 c 22.1449,-4.2906 43.5814,10.1844 47.8726,32.3335 4.2916,22.1481 -10.1848,43.5819 -32.3335,47.8726 l -37.8667,7.3363 c -2.6241,0.5084 -5.238,0.7533 -7.8146,0.7533 z"
         class="st34"
         inkscape:connector-curvature="0"
         style="fill:#f2ae75" /></g><g
       transform="matrix(0.6,0,0,0.6,0,720.00001)"
       id="g5105"><path
         id="path5107"
         d="m 2096.647,1669.1504 -1393.2941,0 c -13.7501,0 -24.8967,-11.1466 -24.8967,-24.8967 l 0,0 c 0,-13.7501 11.1466,-24.8967 24.8967,-24.8967 l 1393.2941,0 c 13.7502,0 24.8967,11.1466 24.8967,24.8967 l 0,0 c 0,13.7501 -11.1465,24.8967 -24.8967,24.8967 z"
         class="st40"
         inkscape:connector-curvature="0"
         style="fill:#e5baa1" /><path
         id="path5109"
         d="m 2096.647,1669.1504 -180.7317,0 c -13.75,0 -24.8967,-11.1466 -24.8967,-24.8967 l 0,0 c 0,-13.7501 11.1467,-24.8967 24.8967,-24.8967 l 180.7317,0 c 13.7502,0 24.8967,11.1466 24.8967,24.8967 l 0,0 c 0,13.7501 -11.1465,24.8967 -24.8967,24.8967 z"
         class="st41"
         inkscape:connector-curvature="0"
         style="fill:#ce9b82" /><path
         id="path5111"
         d="m 933.8782,1669.1504 -74.6902,0 c -13.7501,0 -24.8967,-11.1466 -24.8967,-24.8967 l 0,0 c 0,-13.7501 11.1466,-24.8967 24.8967,-24.8967 l 74.6902,0 c 13.7501,0 24.8967,11.1466 24.8967,24.8967 l 0,0 c -10e-5,13.7501 -11.1467,24.8967 -24.8967,24.8967 z"
         class="st42"
         inkscape:connector-curvature="0"
         style="fill:#f2cfbd" /><path
         id="path5113"
         d="m 1558.1403,1669.1504 -162.2898,0 c -13.75,0 -24.8966,-11.1466 -24.8966,-24.8967 l 0,0 c 0,-13.7501 11.1466,-24.8967 24.8966,-24.8967 l 162.2898,0 c 13.7501,0 24.8967,11.1466 24.8967,24.8967 l 0,0 c 0,13.7501 -11.1466,24.8967 -24.8967,24.8967 z"
         class="st42"
         inkscape:connector-curvature="0"
         style="fill:#f2cfbd" /></g><g
       transform="matrix(0.6,0,0,0.6,0,720.00001)"
       id="g5115"><path
         id="path5119"
         d="m 1533.1859,606.9075 c -5.3477,-0.9976 -10.675,-1.5554 -15.9469,-1.707 32.3553,22.2098 50.3763,62.1111 42.7159,103.1741 -9.3661,50.2061 -53.9122,84.9551 -103.407,83.531 11.4177,7.8376 24.6171,13.4765 39.1079,16.1797 55.5537,10.3636 108.9904,-26.2701 119.354,-81.8239 10.3636,-55.5536 -26.2702,-108.9902 -81.8239,-119.3539 z"
         class="st2"
         inkscape:connector-curvature="0"
         style="fill:#ffffff" /></g></g><text
     xml:space="preserve"
     style="font-style:normal;font-weight:normal;font-size:219.01695251px;line-height:125%;font-family:sans-serif;letter-spacing:0px;word-spacing:0px;fill:#ffffff;fill-opacity:1;stroke:none;stroke-width:1px;stroke-linecap:butt;stroke-linejoin:miter;stroke-opacity:1"
     x="-1873.9551"
     y="458.2861"
     id="text5865"
     sodipodi:linespacing="125%"><tspan
       sodipodi:role="line"
       x="-1873.9551"
       y="458.2861"
       style="font-style:normal;font-variant:normal;font-weight:bold;font-stretch:normal;font-size:180px;font-family:'Arima Madurai';-inkscape-font-specification:'Arima Madurai Bold';fill:#ffffff"
       id="tspan5887" /></text>
</svg>